<?xml version="1.0" encoding="utf-8" standalone="no"?>
<!DOCTYPE svg PUBLIC "-//W3C//DTD SVG 1.1//EN"
  "http://www.w3.org/Graphics/SVG/1.1/DTD/svg11.dtd">
<svg xmlns:xlink="http://www.w3.org/1999/xlink" width="440.39952pt" height="296.39952pt" viewBox="0 0 440.39952 296.39952" xmlns="http://www.w3.org/2000/svg" version="1.1">
 <metadata>
  <rdf:RDF xmlns:dc="http://purl.org/dc/elements/1.1/" xmlns:cc="http://creativecommons.org/ns#" xmlns:rdf="http://www.w3.org/1999/02/22-rdf-syntax-ns#">
   <cc:Work>
    <dc:type rdf:resource="http://purl.org/dc/dcmitype/StillImage"/>
    <dc:date>1980-01-01T00:00:00+00:00</dc:date>
    <dc:format>image/svg+xml</dc:format>
    <dc:creator>
     <cc:Agent>
      <dc:title>Matplotlib v3.5.3, https://matplotlib.org/</dc:title>
     </cc:Agent>
    </dc:creator>
   </cc:Work>
  </rdf:RDF>
 </metadata>
 <defs>
  <style type="text/css">*{stroke-linejoin: round; stroke-linecap: butt}</style>
 </defs>
 <g id="figure_1">
  <g id="patch_1">
   <path d="M 0 296.39952 
L 440.39952 296.39952 
L 440.39952 0 
L 0 0 
L 0 296.39952 
z
" style="fill: none"/>
  </g>
  <g id="axes_1">
   <g id="patch_2">
    <path d="M 40.070739 264.17436 
L 433.19952 264.17436 
L 433.19952 7.2 
L 40.070739 7.2 
z
" style="fill: #ffffff"/>
   </g>
   <g id="matplotlib.axis_1">
    <g id="xtick_1">
     <g id="line2d_1">
      <defs>
       <path id="m079109d62d" d="M 0 0 
L 0 3.5 
" style="stroke: #000000; stroke-width: 0.8"/>
      </defs>
      <g>
       <use xlink:href="#m079109d62d" x="57.940229" y="264.17436" style="stroke: #000000; stroke-width: 0.8"/>
      </g>
     </g>
     <g id="text_1">
      <!-- $\mathdefault{0}$ -->
      <g transform="translate(56.694899 276.838479)scale(0.05 -0.05)">
       <defs>
        <path id="URWPalladioL-Roma-30" d="M 1683 4416 
C 691 4416 186 3628 186 2077 
C 186 1326 320 680 544 366 
C 768 51 1126 -128 1523 -128 
C 2490 -128 2976 705 2976 2346 
C 2976 3749 2560 4416 1683 4416 
z
M 1568 4192 
C 2189 4192 2438 3564 2438 2025 
C 2438 661 2195 96 1606 96 
C 986 96 723 744 723 2308 
C 723 3660 960 4192 1568 4192 
z
" transform="scale(0.015625)"/>
       </defs>
       <use xlink:href="#URWPalladioL-Roma-30" transform="scale(0.996264)"/>
      </g>
     </g>
    </g>
    <g id="xtick_2">
     <g id="line2d_2">
      <g>
       <use xlink:href="#m079109d62d" x="102.613954" y="264.17436" style="stroke: #000000; stroke-width: 0.8"/>
      </g>
     </g>
     <g id="text_2">
      <!-- $\mathdefault{25}$ -->
      <g transform="translate(100.123294 276.838479)scale(0.05 -0.05)">
       <defs>
        <path id="URWPalladioL-Roma-32" d="M 102 160 
L 102 0 
C 1299 0 1299 0 1530 0 
C 1760 0 1760 0 2995 0 
C 2982 125 2982 186 2982 269 
C 2982 348 2982 407 2995 539 
C 2259 539 1965 539 781 539 
L 1946 1761 
C 2566 2414 2758 2763 2758 3238 
C 2758 3966 2259 4416 1446 4416 
C 986 4416 672 4288 358 3969 
L 250 3099 
L 435 3099 
L 518 3393 
C 621 3763 851 3923 1280 3923 
C 1830 3923 2182 3577 2182 3035 
C 2182 2555 1914 2083 1190 1316 
L 102 160 
z
" transform="scale(0.015625)"/>
        <path id="URWPalladioL-Roma-35" d="M 813 3877 
C 1638 3877 1997 3877 2765 3877 
L 2797 3907 
C 2784 4016 2784 4064 2784 4144 
C 2784 4229 2784 4277 2797 4386 
L 2765 4416 
C 2285 4416 1997 4416 1651 4416 
C 1299 4416 1018 4416 538 4416 
L 506 4403 
C 512 4011 518 3729 518 3523 
C 518 2977 499 2360 480 2077 
L 608 2038 
C 909 2341 1082 2432 1395 2432 
C 2010 2432 2394 1993 2394 1296 
C 2394 580 1984 160 1286 160 
C 941 160 621 277 531 444 
L 237 973 
L 83 883 
C 230 516 307 310 397 27 
C 576 -71 832 -128 1107 -128 
C 1536 -128 1990 59 2342 368 
C 2733 716 2938 1154 2938 1630 
C 2938 2359 2419 2874 1690 2874 
C 1382 2874 1152 2791 755 2554 
L 813 3877 
z
" transform="scale(0.015625)"/>
       </defs>
       <use xlink:href="#URWPalladioL-Roma-32" transform="scale(0.996264)"/>
       <use xlink:href="#URWPalladioL-Roma-35" transform="translate(49.8132 0)scale(0.996264)"/>
      </g>
     </g>
    </g>
    <g id="xtick_3">
     <g id="line2d_3">
      <g>
       <use xlink:href="#m079109d62d" x="147.287679" y="264.17436" style="stroke: #000000; stroke-width: 0.8"/>
      </g>
     </g>
     <g id="text_3">
      <!-- $\mathdefault{50}$ -->
      <g transform="translate(144.797019 276.838479)scale(0.05 -0.05)">
       <use xlink:href="#URWPalladioL-Roma-35" transform="scale(0.996264)"/>
       <use xlink:href="#URWPalladioL-Roma-30" transform="translate(49.8132 0)scale(0.996264)"/>
      </g>
     </g>
    </g>
    <g id="xtick_4">
     <g id="line2d_4">
      <g>
       <use xlink:href="#m079109d62d" x="191.961404" y="264.17436" style="stroke: #000000; stroke-width: 0.8"/>
      </g>
     </g>
     <g id="text_4">
      <!-- $\mathdefault{75}$ -->
      <g transform="translate(189.470744 276.838479)scale(0.05 -0.05)">
       <defs>
        <path id="URWPalladioL-Roma-37" d="M 358 32 
L 416 -51 
C 666 -32 666 -32 710 -32 
C 755 -32 755 -32 1005 -51 
C 1274 649 1587 1317 2010 2087 
L 3181 4199 
L 3181 4372 
C 2490 4372 2266 4372 1747 4372 
C 1280 4372 966 4372 346 4372 
L 282 4359 
C 301 3750 301 3750 301 3685 
C 301 3614 301 3614 282 3031 
L 474 3031 
L 518 3390 
C 570 3789 614 3840 909 3840 
L 2618 3840 
C 2362 3313 2163 2941 1920 2549 
L 358 32 
z
" transform="scale(0.015625)"/>
       </defs>
       <use xlink:href="#URWPalladioL-Roma-37" transform="scale(0.996264)"/>
       <use xlink:href="#URWPalladioL-Roma-35" transform="translate(49.8132 0)scale(0.996264)"/>
      </g>
     </g>
    </g>
    <g id="xtick_5">
     <g id="line2d_5">
      <g>
       <use xlink:href="#m079109d62d" x="236.635129" y="264.17436" style="stroke: #000000; stroke-width: 0.8"/>
      </g>
     </g>
     <g id="text_5">
      <!-- $\mathdefault{100}$ -->
      <g transform="translate(232.899139 276.838479)scale(0.05 -0.05)">
       <defs>
        <path id="URWPalladioL-Roma-31" d="M 429 3584 
L 493 3584 
L 1318 3956 
C 1325 3962 1331 3962 1338 3962 
C 1376 3962 1389 3905 1389 3751 
L 1389 613 
C 1389 276 1318 205 973 205 
L 614 205 
L 614 0 
C 1600 0 1600 0 1670 0 
C 1754 0 1894 0 2112 0 
C 2189 0 2413 0 2675 0 
L 2675 205 
L 2342 205 
C 1990 205 1926 276 1926 612 
L 1926 4443 
L 1837 4475 
C 1421 4257 966 4065 384 3860 
L 429 3584 
z
" transform="scale(0.015625)"/>
       </defs>
       <use xlink:href="#URWPalladioL-Roma-31" transform="scale(0.996264)"/>
       <use xlink:href="#URWPalladioL-Roma-30" transform="translate(49.8132 0)scale(0.996264)"/>
       <use xlink:href="#URWPalladioL-Roma-30" transform="translate(99.626401 0)scale(0.996264)"/>
      </g>
     </g>
    </g>
    <g id="xtick_6">
     <g id="line2d_6">
      <g>
       <use xlink:href="#m079109d62d" x="281.308855" y="264.17436" style="stroke: #000000; stroke-width: 0.8"/>
      </g>
     </g>
     <g id="text_6">
      <!-- $\mathdefault{125}$ -->
      <g transform="translate(277.572865 276.838479)scale(0.05 -0.05)">
       <use xlink:href="#URWPalladioL-Roma-31" transform="scale(0.996264)"/>
       <use xlink:href="#URWPalladioL-Roma-32" transform="translate(49.8132 0)scale(0.996264)"/>
       <use xlink:href="#URWPalladioL-Roma-35" transform="translate(99.626401 0)scale(0.996264)"/>
      </g>
     </g>
    </g>
    <g id="xtick_7">
     <g id="line2d_7">
      <g>
       <use xlink:href="#m079109d62d" x="325.98258" y="264.17436" style="stroke: #000000; stroke-width: 0.8"/>
      </g>
     </g>
     <g id="text_7">
      <!-- $\mathdefault{150}$ -->
      <g transform="translate(322.24659 276.838479)scale(0.05 -0.05)">
       <use xlink:href="#URWPalladioL-Roma-31" transform="scale(0.996264)"/>
       <use xlink:href="#URWPalladioL-Roma-35" transform="translate(49.8132 0)scale(0.996264)"/>
       <use xlink:href="#URWPalladioL-Roma-30" transform="translate(99.626401 0)scale(0.996264)"/>
      </g>
     </g>
    </g>
    <g id="xtick_8">
     <g id="line2d_8">
      <g>
       <use xlink:href="#m079109d62d" x="370.656305" y="264.17436" style="stroke: #000000; stroke-width: 0.8"/>
      </g>
     </g>
     <g id="text_8">
      <!-- $\mathdefault{175}$ -->
      <g transform="translate(366.920315 276.838479)scale(0.05 -0.05)">
       <use xlink:href="#URWPalladioL-Roma-31" transform="scale(0.996264)"/>
       <use xlink:href="#URWPalladioL-Roma-37" transform="translate(49.8132 0)scale(0.996264)"/>
       <use xlink:href="#URWPalladioL-Roma-35" transform="translate(99.626401 0)scale(0.996264)"/>
      </g>
     </g>
    </g>
    <g id="xtick_9">
     <g id="line2d_9">
      <g>
       <use xlink:href="#m079109d62d" x="415.33003" y="264.17436" style="stroke: #000000; stroke-width: 0.8"/>
      </g>
     </g>
     <g id="text_9">
      <!-- $\mathdefault{200}$ -->
      <g transform="translate(411.59404 276.838479)scale(0.05 -0.05)">
       <use xlink:href="#URWPalladioL-Roma-32" transform="scale(0.996264)"/>
       <use xlink:href="#URWPalladioL-Roma-30" transform="translate(49.8132 0)scale(0.996264)"/>
       <use xlink:href="#URWPalladioL-Roma-30" transform="translate(99.626401 0)scale(0.996264)"/>
      </g>
     </g>
    </g>
    <g id="text_10">
     <!-- $\tau$ -->
     <g transform="translate(234.807982 287.232941)scale(0.07 -0.07)">
      <defs>
       <path id="PazoMath-Italic-74" d="M 275 2288 
L 333 2333 
C 467 2671 723 2688 1088 2688 
C 1242 2688 1491 2688 1734 2688 
C 1632 2323 1248 1114 1248 692 
C 1248 20 1491 -64 1690 -64 
C 2016 -64 2202 20 2605 361 
L 2554 484 
L 2400 374 
C 2419 387 2234 238 2125 238 
C 1824 238 1734 426 1734 825 
C 1734 986 1747 1160 1786 1348 
C 1901 1908 2016 2443 2074 2688 
C 2246 2688 2400 2688 2490 2688 
C 2637 2688 2790 2688 2938 2688 
C 3053 2688 3194 2750 3296 2786 
C 3366 2914 3392 2927 3514 3073 
L 3469 3150 
C 3296 3102 3008 3048 2797 3048 
C 2720 3054 2560 3054 2400 3054 
C 2042 3054 1306 3073 1024 3073 
C 544 3073 371 2871 186 2339 
L 275 2288 
z
" transform="scale(0.015625)"/>
      </defs>
      <use xlink:href="#PazoMath-Italic-74" transform="scale(0.996264)"/>
     </g>
    </g>
   </g>
   <g id="matplotlib.axis_2">
    <g id="ytick_1">
     <g id="line2d_10">
      <defs>
       <path id="m313614da62" d="M 0 0 
L -3.5 0 
" style="stroke: #000000; stroke-width: 0.8"/>
      </defs>
      <g>
       <use xlink:href="#m313614da62" x="40.070739" y="247.489986" style="stroke: #000000; stroke-width: 0.8"/>
      </g>
     </g>
     <g id="text_11">
      <!-- $\mathdefault{−10.0}$ -->
      <g transform="translate(18.156336 249.272045)scale(0.05 -0.05)">
       <defs>
        <path id="CMSY10-0" d="M 4218 1472 
C 4326 1472 4442 1472 4442 1600 
C 4442 1728 4326 1728 4218 1728 
L 755 1728 
C 646 1728 531 1728 531 1600 
C 531 1472 646 1472 755 1472 
L 4218 1472 
z
" transform="scale(0.015625)"/>
        <path id="URWPalladioL-Roma-2e" d="M 794 744 
C 602 744 429 564 429 372 
C 429 179 602 0 787 0 
C 992 0 1171 173 1171 372 
C 1171 564 992 744 794 744 
z
" transform="scale(0.015625)"/>
       </defs>
       <use xlink:href="#CMSY10-0" transform="scale(1.038107)"/>
       <use xlink:href="#URWPalladioL-Roma-31" transform="translate(81.941696 0)scale(0.996264)"/>
       <use xlink:href="#URWPalladioL-Roma-30" transform="translate(131.754897 0)scale(0.996264)"/>
       <use xlink:href="#URWPalladioL-Roma-2e" transform="translate(181.568097 0)scale(0.996264)"/>
       <use xlink:href="#URWPalladioL-Roma-30" transform="translate(206.474698 0)scale(0.996264)"/>
      </g>
     </g>
    </g>
    <g id="ytick_2">
     <g id="line2d_11">
      <g>
       <use xlink:href="#m313614da62" x="40.070739" y="217.419491" style="stroke: #000000; stroke-width: 0.8"/>
      </g>
     </g>
     <g id="text_12">
      <!-- $\mathdefault{−7.5}$ -->
      <g transform="translate(20.646996 219.20155)scale(0.05 -0.05)">
       <use xlink:href="#CMSY10-0" transform="scale(1.038107)"/>
       <use xlink:href="#URWPalladioL-Roma-37" transform="translate(81.941696 0)scale(0.996264)"/>
       <use xlink:href="#URWPalladioL-Roma-2e" transform="translate(131.754897 0)scale(0.996264)"/>
       <use xlink:href="#URWPalladioL-Roma-35" transform="translate(156.661497 0)scale(0.996264)"/>
      </g>
     </g>
    </g>
    <g id="ytick_3">
     <g id="line2d_12">
      <g>
       <use xlink:href="#m313614da62" x="40.070739" y="187.348996" style="stroke: #000000; stroke-width: 0.8"/>
      </g>
     </g>
     <g id="text_13">
      <!-- $\mathdefault{−5.0}$ -->
      <g transform="translate(20.646996 189.131055)scale(0.05 -0.05)">
       <use xlink:href="#CMSY10-0" transform="scale(1.038107)"/>
       <use xlink:href="#URWPalladioL-Roma-35" transform="translate(81.941696 0)scale(0.996264)"/>
       <use xlink:href="#URWPalladioL-Roma-2e" transform="translate(131.754897 0)scale(0.996264)"/>
       <use xlink:href="#URWPalladioL-Roma-30" transform="translate(156.661497 0)scale(0.996264)"/>
      </g>
     </g>
    </g>
    <g id="ytick_4">
     <g id="line2d_13">
      <g>
       <use xlink:href="#m313614da62" x="40.070739" y="157.278501" style="stroke: #000000; stroke-width: 0.8"/>
      </g>
     </g>
     <g id="text_14">
      <!-- $\mathdefault{−2.5}$ -->
      <g transform="translate(20.646996 159.06056)scale(0.05 -0.05)">
       <use xlink:href="#CMSY10-0" transform="scale(1.038107)"/>
       <use xlink:href="#URWPalladioL-Roma-32" transform="translate(81.941696 0)scale(0.996264)"/>
       <use xlink:href="#URWPalladioL-Roma-2e" transform="translate(131.754897 0)scale(0.996264)"/>
       <use xlink:href="#URWPalladioL-Roma-35" transform="translate(156.661497 0)scale(0.996264)"/>
      </g>
     </g>
    </g>
    <g id="ytick_5">
     <g id="line2d_14">
      <g>
       <use xlink:href="#m313614da62" x="40.070739" y="127.208005" style="stroke: #000000; stroke-width: 0.8"/>
      </g>
     </g>
     <g id="text_15">
      <!-- $\mathdefault{0.0}$ -->
      <g transform="translate(24.744089 128.990065)scale(0.05 -0.05)">
       <use xlink:href="#URWPalladioL-Roma-30" transform="scale(0.996264)"/>
       <use xlink:href="#URWPalladioL-Roma-2e" transform="translate(49.8132 0)scale(0.996264)"/>
       <use xlink:href="#URWPalladioL-Roma-30" transform="translate(74.719801 0)scale(0.996264)"/>
      </g>
     </g>
    </g>
    <g id="ytick_6">
     <g id="line2d_15">
      <g>
       <use xlink:href="#m313614da62" x="40.070739" y="97.13751" style="stroke: #000000; stroke-width: 0.8"/>
      </g>
     </g>
     <g id="text_16">
      <!-- $\mathdefault{2.5}$ -->
      <g transform="translate(24.744089 98.91957)scale(0.05 -0.05)">
       <use xlink:href="#URWPalladioL-Roma-32" transform="scale(0.996264)"/>
       <use xlink:href="#URWPalladioL-Roma-2e" transform="translate(49.8132 0)scale(0.996264)"/>
       <use xlink:href="#URWPalladioL-Roma-35" transform="translate(74.719801 0)scale(0.996264)"/>
      </g>
     </g>
    </g>
    <g id="ytick_7">
     <g id="line2d_16">
      <g>
       <use xlink:href="#m313614da62" x="40.070739" y="67.067015" style="stroke: #000000; stroke-width: 0.8"/>
      </g>
     </g>
     <g id="text_17">
      <!-- $\mathdefault{5.0}$ -->
      <g transform="translate(24.744089 68.849075)scale(0.05 -0.05)">
       <use xlink:href="#URWPalladioL-Roma-35" transform="scale(0.996264)"/>
       <use xlink:href="#URWPalladioL-Roma-2e" transform="translate(49.8132 0)scale(0.996264)"/>
       <use xlink:href="#URWPalladioL-Roma-30" transform="translate(74.719801 0)scale(0.996264)"/>
      </g>
     </g>
    </g>
    <g id="ytick_8">
     <g id="line2d_17">
      <g>
       <use xlink:href="#m313614da62" x="40.070739" y="36.99652" style="stroke: #000000; stroke-width: 0.8"/>
      </g>
     </g>
     <g id="text_18">
      <!-- $\mathdefault{7.5}$ -->
      <g transform="translate(24.744089 38.77858)scale(0.05 -0.05)">
       <use xlink:href="#URWPalladioL-Roma-37" transform="scale(0.996264)"/>
       <use xlink:href="#URWPalladioL-Roma-2e" transform="translate(49.8132 0)scale(0.996264)"/>
       <use xlink:href="#URWPalladioL-Roma-35" transform="translate(74.719801 0)scale(0.996264)"/>
      </g>
     </g>
    </g>
    <g id="text_19">
     <!-- Energy -->
     <g transform="translate(12.189757 146.70924)rotate(-90)scale(0.07 -0.07)">
      <defs>
       <path id="URWPalladioL-Roma-45" d="M 141 4224 
L 448 4224 
C 742 4224 774 4172 774 3665 
L 774 784 
C 774 276 749 231 448 205 
L 218 186 
L 218 0 
C 640 0 826 0 1005 0 
C 1037 0 1216 0 1459 0 
C 2349 0 2349 0 2490 0 
C 2688 0 2688 0 3558 0 
C 3558 382 3597 736 3661 1079 
L 3437 1079 
C 3424 972 3411 878 3405 852 
C 3366 564 3283 356 3194 323 
C 3059 276 2592 276 2016 276 
C 1683 276 1568 286 1382 315 
L 1382 2100 
C 1562 2112 1754 2112 2042 2112 
C 2515 2112 2688 2094 2803 2040 
L 2854 1890 
L 2886 1536 
L 3078 1536 
C 3059 2132 3059 2132 3059 2247 
C 3059 2350 3059 2350 3078 2991 
L 2886 2991 
L 2854 2642 
C 2848 2581 2829 2521 2803 2467 
C 2688 2414 2509 2394 2086 2394 
C 1818 2394 1600 2394 1382 2394 
L 1382 4117 
C 1581 4160 1690 4160 2131 4160 
C 2496 4160 2854 4130 3059 4076 
C 3213 4039 3232 4008 3232 3868 
L 3232 3465 
L 3456 3465 
C 3456 3843 3488 4146 3558 4423 
C 3245 4423 3046 4423 2765 4423 
C 2605 4423 2394 4423 2131 4423 
C 1728 4423 1453 4423 1280 4423 
C 1062 4423 774 4423 141 4423 
L 141 4224 
z
" transform="scale(0.015625)"/>
       <path id="URWPalladioL-Roma-6e" d="M 2624 -7 
C 3014 -7 3021 -7 3130 -7 
C 3219 -7 3219 -7 3661 -7 
L 3661 179 
L 3398 205 
C 3181 205 3162 244 3162 654 
L 3162 1892 
C 3162 2642 2810 3008 2093 3008 
C 1856 3008 1722 2963 1587 2847 
L 1101 2424 
L 1101 2982 
L 1043 3008 
C 717 2873 384 2783 45 2745 
L 45 2565 
L 282 2565 
C 538 2565 563 2520 563 2094 
L 563 643 
C 563 237 544 192 326 192 
L 38 192 
L 38 -7 
C 474 -7 646 -7 832 -7 
C 1018 -7 1190 -7 1626 -7 
L 1626 192 
L 1338 192 
C 1120 192 1101 237 1101 643 
L 1101 2011 
C 1101 2300 1523 2616 1914 2616 
C 2342 2616 2624 2297 2624 1806 
L 2624 -7 
z
" transform="scale(0.015625)"/>
       <path id="URWPalladioL-Roma-65" d="M 2797 447 
L 2714 511 
C 2304 269 2157 212 1882 212 
C 1466 212 1120 398 941 711 
C 819 921 774 1101 762 1472 
L 1696 1472 
C 2138 1472 2413 1472 2854 1544 
C 2861 1634 2867 1693 2867 1771 
C 2867 2520 2394 3008 1677 3008 
C 1440 3008 1165 2924 902 2770 
C 378 2469 166 2071 166 1404 
C 166 1000 262 654 435 410 
C 691 71 1120 -128 1600 -128 
C 1837 -128 2074 -77 2336 37 
C 2509 108 2643 191 2669 230 
L 2797 447 
z
M 2298 1690 
C 1965 1690 1811 1690 1581 1690 
C 1286 1690 1120 1690 774 1722 
C 774 2027 800 2169 883 2337 
C 1018 2622 1293 2796 1600 2796 
C 1811 2796 1978 2711 2093 2534 
C 2234 2319 2278 2129 2298 1690 
z
" transform="scale(0.015625)"/>
       <path id="URWPalladioL-Roma-72" d="M 147 2565 
L 384 2565 
C 640 2565 666 2520 666 2094 
L 666 643 
C 666 237 646 192 429 192 
L 134 192 
L 134 -7 
C 595 -7 762 -7 922 -7 
C 1050 -7 1050 -7 1837 -7 
L 1837 192 
L 1504 192 
C 1216 192 1203 211 1203 638 
L 1203 1751 
C 1203 2139 1459 2463 1773 2463 
C 1965 2463 2099 2373 2202 2169 
L 2336 2169 
L 2394 2937 
C 2323 2982 2208 3008 2093 3008 
C 1901 3008 1696 2905 1562 2745 
L 1203 2322 
L 1203 2982 
L 1146 3008 
C 819 2873 486 2783 147 2745 
L 147 2565 
z
" transform="scale(0.015625)"/>
       <path id="URWPalladioL-Roma-67" d="M 3322 2432 
L 3482 2695 
L 3456 2759 
L 2547 2759 
C 2310 2937 2080 3008 1766 3008 
C 1485 3008 1158 2920 896 2768 
C 538 2567 352 2258 352 1874 
C 352 1408 646 1087 1120 1036 
L 614 640 
C 550 543 518 459 518 361 
C 518 180 634 76 941 -14 
L 384 -316 
C 294 -367 205 -604 205 -803 
C 205 -1388 774 -1792 1587 -1792 
C 2554 -1792 3315 -1182 3315 -399 
C 3315 63 3008 384 2560 384 
L 1536 384 
C 1203 384 1050 462 1050 639 
C 1050 724 1101 795 1267 939 
C 1306 972 1318 985 1344 1011 
C 1408 1004 1446 998 1498 998 
C 1773 998 2112 1118 2374 1300 
C 2662 1507 2803 1759 2803 2093 
C 2803 2218 2784 2300 2733 2432 
L 3322 2432 
z
M 1536 2790 
C 1971 2790 2266 2438 2266 1905 
C 2266 1499 1997 1216 1606 1216 
C 1178 1216 890 1542 890 2025 
C 890 2507 1126 2790 1536 2790 
z
M 1837 -65 
C 2560 -65 2810 -212 2810 -630 
C 2810 -1182 2304 -1593 1632 -1593 
C 1075 -1593 691 -1266 691 -790 
C 691 -502 858 -238 1114 -129 
C 1216 -78 1395 -65 1837 -65 
z
" transform="scale(0.015625)"/>
       <path id="URWPalladioL-Roma-79" d="M 1901 564 
C 1760 808 1690 956 1574 1270 
L 1165 2347 
C 1126 2456 1101 2552 1101 2618 
C 1101 2710 1171 2764 1318 2764 
L 1562 2764 
L 1562 2944 
C 941 2944 941 2944 819 2944 
C 698 2944 698 2944 77 2944 
L 77 2777 
L 192 2764 
C 352 2745 429 2674 525 2451 
L 1222 775 
C 1402 340 1466 186 1581 -134 
L 1434 -524 
C 1229 -1062 979 -1362 736 -1362 
C 634 -1362 518 -1311 410 -1215 
L 326 -1215 
L 173 -1696 
C 294 -1760 397 -1792 518 -1792 
C 947 -1792 1222 -1562 1466 -1005 
L 2765 1990 
C 3021 2572 3142 2745 3302 2764 
L 3482 2777 
L 3482 2944 
C 2976 2944 2976 2944 2874 2944 
C 2771 2944 2771 2944 2266 2944 
L 2266 2777 
L 2432 2764 
C 2611 2751 2701 2694 2701 2604 
C 2701 2559 2688 2501 2662 2437 
L 1901 564 
z
" transform="scale(0.015625)"/>
      </defs>
      <use xlink:href="#URWPalladioL-Roma-45" transform="scale(0.996264)"/>
      <use xlink:href="#URWPalladioL-Roma-6e" transform="translate(60.871631 0)scale(0.996264)"/>
      <use xlink:href="#URWPalladioL-Roma-65" transform="translate(118.853691 0)scale(0.996264)"/>
      <use xlink:href="#URWPalladioL-Roma-72" transform="translate(166.573986 0)scale(0.996264)"/>
      <use xlink:href="#URWPalladioL-Roma-67" transform="translate(204.133304 0)scale(0.996264)"/>
      <use xlink:href="#URWPalladioL-Roma-79" transform="translate(259.524981 0)scale(0.996264)"/>
     </g>
    </g>
   </g>
   <g id="LineCollection_1">
    <path d="M 57.940229 127.208005 
L 57.940229 127.208005 
" clip-path="url(#pf1fd18d04b)" style="fill: none; stroke: #1f77b4; stroke-width: 0.5"/>
    <path d="M 75.809719 124.141885 
L 75.809719 123.359518 
" clip-path="url(#pf1fd18d04b)" style="fill: none; stroke: #1f77b4; stroke-width: 0.5"/>
    <path d="M 93.679209 124.274404 
L 93.679209 123.565804 
" clip-path="url(#pf1fd18d04b)" style="fill: none; stroke: #1f77b4; stroke-width: 0.5"/>
    <path d="M 111.548699 124.351363 
L 111.548699 123.601864 
" clip-path="url(#pf1fd18d04b)" style="fill: none; stroke: #1f77b4; stroke-width: 0.5"/>
    <path d="M 129.418189 124.577367 
L 129.418189 123.889398 
" clip-path="url(#pf1fd18d04b)" style="fill: none; stroke: #1f77b4; stroke-width: 0.5"/>
    <path d="M 147.287679 124.609988 
L 147.287679 123.949514 
" clip-path="url(#pf1fd18d04b)" style="fill: none; stroke: #1f77b4; stroke-width: 0.5"/>
    <path d="M 165.157169 124.03232 
L 165.157169 123.360404 
" clip-path="url(#pf1fd18d04b)" style="fill: none; stroke: #1f77b4; stroke-width: 0.5"/>
    <path d="M 183.026659 124.709242 
L 183.026659 123.879612 
" clip-path="url(#pf1fd18d04b)" style="fill: none; stroke: #1f77b4; stroke-width: 0.5"/>
    <path d="M 200.896149 123.257633 
L 200.896149 122.431012 
" clip-path="url(#pf1fd18d04b)" style="fill: none; stroke: #1f77b4; stroke-width: 0.5"/>
    <path d="M 218.765639 124.342716 
L 218.765639 123.609547 
" clip-path="url(#pf1fd18d04b)" style="fill: none; stroke: #1f77b4; stroke-width: 0.5"/>
    <path d="M 236.635129 124.890038 
L 236.635129 124.237427 
" clip-path="url(#pf1fd18d04b)" style="fill: none; stroke: #1f77b4; stroke-width: 0.5"/>
    <path d="M 254.504619 124.828079 
L 254.504619 124.184357 
" clip-path="url(#pf1fd18d04b)" style="fill: none; stroke: #1f77b4; stroke-width: 0.5"/>
    <path d="M 272.37411 124.081774 
L 272.37411 123.382341 
" clip-path="url(#pf1fd18d04b)" style="fill: none; stroke: #1f77b4; stroke-width: 0.5"/>
    <path d="M 290.2436 124.629844 
L 290.2436 124.01346 
" clip-path="url(#pf1fd18d04b)" style="fill: none; stroke: #1f77b4; stroke-width: 0.5"/>
    <path d="M 308.11309 124.945216 
L 308.11309 124.429417 
" clip-path="url(#pf1fd18d04b)" style="fill: none; stroke: #1f77b4; stroke-width: 0.5"/>
    <path d="M 325.98258 124.232175 
L 325.98258 123.539988 
" clip-path="url(#pf1fd18d04b)" style="fill: none; stroke: #1f77b4; stroke-width: 0.5"/>
    <path d="M 343.85207 124.784819 
L 343.85207 124.183761 
" clip-path="url(#pf1fd18d04b)" style="fill: none; stroke: #1f77b4; stroke-width: 0.5"/>
    <path d="M 361.72156 124.649145 
L 361.72156 124.015943 
" clip-path="url(#pf1fd18d04b)" style="fill: none; stroke: #1f77b4; stroke-width: 0.5"/>
    <path d="M 379.59105 123.972468 
L 379.59105 123.252712 
" clip-path="url(#pf1fd18d04b)" style="fill: none; stroke: #1f77b4; stroke-width: 0.5"/>
    <path d="M 397.46054 124.791311 
L 397.46054 124.124324 
" clip-path="url(#pf1fd18d04b)" style="fill: none; stroke: #1f77b4; stroke-width: 0.5"/>
    <path d="M 415.33003 124.774622 
L 415.33003 124.201399 
" clip-path="url(#pf1fd18d04b)" style="fill: none; stroke: #1f77b4; stroke-width: 0.5"/>
   </g>
   <g id="LineCollection_2">
    <path d="M 57.940229 127.208005 
L 57.940229 127.208005 
" clip-path="url(#pf1fd18d04b)" style="fill: none; stroke: #ff7f0e; stroke-width: 0.5"/>
    <path d="M 75.809719 121.069791 
L 75.809719 121.029704 
" clip-path="url(#pf1fd18d04b)" style="fill: none; stroke: #ff7f0e; stroke-width: 0.5"/>
    <path d="M 93.679209 115.432772 
L 93.679209 115.37547 
" clip-path="url(#pf1fd18d04b)" style="fill: none; stroke: #ff7f0e; stroke-width: 0.5"/>
    <path d="M 111.548699 109.715033 
L 111.548699 109.643227 
" clip-path="url(#pf1fd18d04b)" style="fill: none; stroke: #ff7f0e; stroke-width: 0.5"/>
    <path d="M 129.418189 104.251117 
L 129.418189 104.169314 
" clip-path="url(#pf1fd18d04b)" style="fill: none; stroke: #ff7f0e; stroke-width: 0.5"/>
    <path d="M 147.287679 98.810545 
L 147.287679 98.720471 
" clip-path="url(#pf1fd18d04b)" style="fill: none; stroke: #ff7f0e; stroke-width: 0.5"/>
    <path d="M 165.157169 92.916477 
L 165.157169 92.817882 
" clip-path="url(#pf1fd18d04b)" style="fill: none; stroke: #ff7f0e; stroke-width: 0.5"/>
    <path d="M 183.026659 87.96119 
L 183.026659 87.85231 
" clip-path="url(#pf1fd18d04b)" style="fill: none; stroke: #ff7f0e; stroke-width: 0.5"/>
    <path d="M 200.896149 81.203884 
L 200.896149 81.086398 
" clip-path="url(#pf1fd18d04b)" style="fill: none; stroke: #ff7f0e; stroke-width: 0.5"/>
    <path d="M 218.765639 75.535765 
L 218.765639 75.411636 
" clip-path="url(#pf1fd18d04b)" style="fill: none; stroke: #ff7f0e; stroke-width: 0.5"/>
    <path d="M 236.635129 70.679903 
L 236.635129 70.550427 
" clip-path="url(#pf1fd18d04b)" style="fill: none; stroke: #ff7f0e; stroke-width: 0.5"/>
    <path d="M 254.504619 65.470642 
L 254.504619 65.335988 
" clip-path="url(#pf1fd18d04b)" style="fill: none; stroke: #ff7f0e; stroke-width: 0.5"/>
    <path d="M 272.37411 59.615043 
L 272.37411 59.474582 
" clip-path="url(#pf1fd18d04b)" style="fill: none; stroke: #ff7f0e; stroke-width: 0.5"/>
    <path d="M 290.2436 54.508911 
L 290.2436 54.364187 
" clip-path="url(#pf1fd18d04b)" style="fill: none; stroke: #ff7f0e; stroke-width: 0.5"/>
    <path d="M 308.11309 49.623451 
L 308.11309 49.473785 
" clip-path="url(#pf1fd18d04b)" style="fill: none; stroke: #ff7f0e; stroke-width: 0.5"/>
    <path d="M 325.98258 44.275194 
L 325.98258 44.121725 
" clip-path="url(#pf1fd18d04b)" style="fill: none; stroke: #ff7f0e; stroke-width: 0.5"/>
    <path d="M 343.85207 39.625639 
L 343.85207 39.467284 
" clip-path="url(#pf1fd18d04b)" style="fill: none; stroke: #ff7f0e; stroke-width: 0.5"/>
    <path d="M 361.72156 34.718692 
L 361.72156 34.555909 
" clip-path="url(#pf1fd18d04b)" style="fill: none; stroke: #ff7f0e; stroke-width: 0.5"/>
    <path d="M 379.59105 28.951715 
L 379.59105 28.782775 
" clip-path="url(#pf1fd18d04b)" style="fill: none; stroke: #ff7f0e; stroke-width: 0.5"/>
    <path d="M 397.46054 24.161146 
L 397.46054 23.988351 
" clip-path="url(#pf1fd18d04b)" style="fill: none; stroke: #ff7f0e; stroke-width: 0.5"/>
    <path d="M 415.33003 19.058123 
L 415.33003 18.880653 
" clip-path="url(#pf1fd18d04b)" style="fill: none; stroke: #ff7f0e; stroke-width: 0.5"/>
   </g>
   <g id="LineCollection_3">
    <path d="M 57.940229 127.208005 
L 57.940229 127.208005 
" clip-path="url(#pf1fd18d04b)" style="fill: none; stroke: #2ca02c; stroke-width: 0.5"/>
    <path d="M 75.809719 127.208005 
L 75.809719 127.208005 
" clip-path="url(#pf1fd18d04b)" style="fill: none; stroke: #2ca02c; stroke-width: 0.5"/>
    <path d="M 93.679209 127.208005 
L 93.679209 127.208005 
" clip-path="url(#pf1fd18d04b)" style="fill: none; stroke: #2ca02c; stroke-width: 0.5"/>
    <path d="M 111.548699 127.208005 
L 111.548699 127.208005 
" clip-path="url(#pf1fd18d04b)" style="fill: none; stroke: #2ca02c; stroke-width: 0.5"/>
    <path d="M 129.418189 127.208005 
L 129.418189 127.208005 
" clip-path="url(#pf1fd18d04b)" style="fill: none; stroke: #2ca02c; stroke-width: 0.5"/>
    <path d="M 147.287679 127.208005 
L 147.287679 127.208005 
" clip-path="url(#pf1fd18d04b)" style="fill: none; stroke: #2ca02c; stroke-width: 0.5"/>
    <path d="M 165.157169 127.208005 
L 165.157169 127.208005 
" clip-path="url(#pf1fd18d04b)" style="fill: none; stroke: #2ca02c; stroke-width: 0.5"/>
    <path d="M 183.026659 127.208005 
L 183.026659 127.208005 
" clip-path="url(#pf1fd18d04b)" style="fill: none; stroke: #2ca02c; stroke-width: 0.5"/>
    <path d="M 200.896149 127.208005 
L 200.896149 127.208005 
" clip-path="url(#pf1fd18d04b)" style="fill: none; stroke: #2ca02c; stroke-width: 0.5"/>
    <path d="M 218.765639 127.208005 
L 218.765639 127.208005 
" clip-path="url(#pf1fd18d04b)" style="fill: none; stroke: #2ca02c; stroke-width: 0.5"/>
    <path d="M 236.635129 127.208005 
L 236.635129 127.208005 
" clip-path="url(#pf1fd18d04b)" style="fill: none; stroke: #2ca02c; stroke-width: 0.5"/>
    <path d="M 254.504619 127.208005 
L 254.504619 127.208005 
" clip-path="url(#pf1fd18d04b)" style="fill: none; stroke: #2ca02c; stroke-width: 0.5"/>
    <path d="M 272.37411 127.208005 
L 272.37411 127.208005 
" clip-path="url(#pf1fd18d04b)" style="fill: none; stroke: #2ca02c; stroke-width: 0.5"/>
    <path d="M 290.2436 127.208005 
L 290.2436 127.208005 
" clip-path="url(#pf1fd18d04b)" style="fill: none; stroke: #2ca02c; stroke-width: 0.5"/>
    <path d="M 308.11309 127.208005 
L 308.11309 127.208005 
" clip-path="url(#pf1fd18d04b)" style="fill: none; stroke: #2ca02c; stroke-width: 0.5"/>
    <path d="M 325.98258 127.208005 
L 325.98258 127.208005 
" clip-path="url(#pf1fd18d04b)" style="fill: none; stroke: #2ca02c; stroke-width: 0.5"/>
    <path d="M 343.85207 127.208005 
L 343.85207 127.208005 
" clip-path="url(#pf1fd18d04b)" style="fill: none; stroke: #2ca02c; stroke-width: 0.5"/>
    <path d="M 361.72156 127.208005 
L 361.72156 127.208005 
" clip-path="url(#pf1fd18d04b)" style="fill: none; stroke: #2ca02c; stroke-width: 0.5"/>
    <path d="M 379.59105 127.208005 
L 379.59105 127.208005 
" clip-path="url(#pf1fd18d04b)" style="fill: none; stroke: #2ca02c; stroke-width: 0.5"/>
    <path d="M 397.46054 127.208005 
L 397.46054 127.208005 
" clip-path="url(#pf1fd18d04b)" style="fill: none; stroke: #2ca02c; stroke-width: 0.5"/>
    <path d="M 415.33003 127.208005 
L 415.33003 127.208005 
" clip-path="url(#pf1fd18d04b)" style="fill: none; stroke: #2ca02c; stroke-width: 0.5"/>
   </g>
   <g id="LineCollection_4">
    <path d="M 57.940229 127.208005 
L 57.940229 127.208005 
" clip-path="url(#pf1fd18d04b)" style="fill: none; stroke: #d62728; stroke-width: 0.5"/>
    <path d="M 75.809719 142.688162 
L 75.809719 142.25054 
" clip-path="url(#pf1fd18d04b)" style="fill: none; stroke: #d62728; stroke-width: 0.5"/>
    <path d="M 93.679209 147.66943 
L 93.679209 147.059446 
" clip-path="url(#pf1fd18d04b)" style="fill: none; stroke: #d62728; stroke-width: 0.5"/>
    <path d="M 111.548699 153.269866 
L 111.548699 152.539902 
" clip-path="url(#pf1fd18d04b)" style="fill: none; stroke: #d62728; stroke-width: 0.5"/>
    <path d="M 129.418189 160.100725 
L 129.418189 159.231467 
" clip-path="url(#pf1fd18d04b)" style="fill: none; stroke: #d62728; stroke-width: 0.5"/>
    <path d="M 147.287679 166.464901 
L 147.287679 165.483568 
" clip-path="url(#pf1fd18d04b)" style="fill: none; stroke: #d62728; stroke-width: 0.5"/>
    <path d="M 165.157169 173.800814 
L 165.157169 172.713099 
" clip-path="url(#pf1fd18d04b)" style="fill: none; stroke: #d62728; stroke-width: 0.5"/>
    <path d="M 183.026659 177.614859 
L 183.026659 176.436442 
" clip-path="url(#pf1fd18d04b)" style="fill: none; stroke: #d62728; stroke-width: 0.5"/>
    <path d="M 200.896149 185.35669 
L 200.896149 184.09533 
" clip-path="url(#pf1fd18d04b)" style="fill: none; stroke: #d62728; stroke-width: 0.5"/>
    <path d="M 218.765639 189.626928 
L 218.765639 188.290625 
" clip-path="url(#pf1fd18d04b)" style="fill: none; stroke: #d62728; stroke-width: 0.5"/>
    <path d="M 236.635129 194.202325 
L 236.635129 192.780149 
" clip-path="url(#pf1fd18d04b)" style="fill: none; stroke: #d62728; stroke-width: 0.5"/>
    <path d="M 254.504619 201.661013 
L 254.504619 200.161006 
" clip-path="url(#pf1fd18d04b)" style="fill: none; stroke: #d62728; stroke-width: 0.5"/>
    <path d="M 272.37411 208.256698 
L 272.37411 206.675359 
" clip-path="url(#pf1fd18d04b)" style="fill: none; stroke: #d62728; stroke-width: 0.5"/>
    <path d="M 290.2436 212.210673 
L 290.2436 210.560588 
" clip-path="url(#pf1fd18d04b)" style="fill: none; stroke: #d62728; stroke-width: 0.5"/>
    <path d="M 308.11309 216.642374 
L 308.11309 214.928351 
" clip-path="url(#pf1fd18d04b)" style="fill: none; stroke: #d62728; stroke-width: 0.5"/>
    <path d="M 325.98258 223.665881 
L 325.98258 221.891233 
" clip-path="url(#pf1fd18d04b)" style="fill: none; stroke: #d62728; stroke-width: 0.5"/>
    <path d="M 343.85207 228.164627 
L 343.85207 226.3296 
" clip-path="url(#pf1fd18d04b)" style="fill: none; stroke: #d62728; stroke-width: 0.5"/>
    <path d="M 361.72156 233.12049 
L 361.72156 231.22369 
" clip-path="url(#pf1fd18d04b)" style="fill: none; stroke: #d62728; stroke-width: 0.5"/>
    <path d="M 379.59105 240.68233 
L 379.59105 238.734381 
" clip-path="url(#pf1fd18d04b)" style="fill: none; stroke: #d62728; stroke-width: 0.5"/>
    <path d="M 397.46054 244.988201 
L 397.46054 242.990722 
" clip-path="url(#pf1fd18d04b)" style="fill: none; stroke: #d62728; stroke-width: 0.5"/>
    <path d="M 415.33003 252.493707 
L 415.33003 250.43621 
" clip-path="url(#pf1fd18d04b)" style="fill: none; stroke: #d62728; stroke-width: 0.5"/>
   </g>
   <g id="LineCollection_5">
    <path d="M 57.940229 127.208005 
L 57.940229 127.208005 
" clip-path="url(#pf1fd18d04b)" style="fill: none; stroke: #9467bd; stroke-width: 0.5"/>
    <path d="M 75.809719 127.208005 
L 75.809719 127.208005 
" clip-path="url(#pf1fd18d04b)" style="fill: none; stroke: #9467bd; stroke-width: 0.5"/>
    <path d="M 93.679209 127.208005 
L 93.679209 127.208005 
" clip-path="url(#pf1fd18d04b)" style="fill: none; stroke: #9467bd; stroke-width: 0.5"/>
    <path d="M 111.548699 127.208005 
L 111.548699 127.208005 
" clip-path="url(#pf1fd18d04b)" style="fill: none; stroke: #9467bd; stroke-width: 0.5"/>
    <path d="M 129.418189 127.208005 
L 129.418189 127.208005 
" clip-path="url(#pf1fd18d04b)" style="fill: none; stroke: #9467bd; stroke-width: 0.5"/>
    <path d="M 147.287679 127.208005 
L 147.287679 127.208005 
" clip-path="url(#pf1fd18d04b)" style="fill: none; stroke: #9467bd; stroke-width: 0.5"/>
    <path d="M 165.157169 127.208005 
L 165.157169 127.208005 
" clip-path="url(#pf1fd18d04b)" style="fill: none; stroke: #9467bd; stroke-width: 0.5"/>
    <path d="M 183.026659 127.208005 
L 183.026659 127.208005 
" clip-path="url(#pf1fd18d04b)" style="fill: none; stroke: #9467bd; stroke-width: 0.5"/>
    <path d="M 200.896149 127.208005 
L 200.896149 127.208005 
" clip-path="url(#pf1fd18d04b)" style="fill: none; stroke: #9467bd; stroke-width: 0.5"/>
    <path d="M 218.765639 127.208005 
L 218.765639 127.208005 
" clip-path="url(#pf1fd18d04b)" style="fill: none; stroke: #9467bd; stroke-width: 0.5"/>
    <path d="M 236.635129 127.208005 
L 236.635129 127.208005 
" clip-path="url(#pf1fd18d04b)" style="fill: none; stroke: #9467bd; stroke-width: 0.5"/>
    <path d="M 254.504619 127.208005 
L 254.504619 127.208005 
" clip-path="url(#pf1fd18d04b)" style="fill: none; stroke: #9467bd; stroke-width: 0.5"/>
    <path d="M 272.37411 127.208005 
L 272.37411 127.208005 
" clip-path="url(#pf1fd18d04b)" style="fill: none; stroke: #9467bd; stroke-width: 0.5"/>
    <path d="M 290.2436 127.208005 
L 290.2436 127.208005 
" clip-path="url(#pf1fd18d04b)" style="fill: none; stroke: #9467bd; stroke-width: 0.5"/>
    <path d="M 308.11309 127.208005 
L 308.11309 127.208005 
" clip-path="url(#pf1fd18d04b)" style="fill: none; stroke: #9467bd; stroke-width: 0.5"/>
    <path d="M 325.98258 127.208005 
L 325.98258 127.208005 
" clip-path="url(#pf1fd18d04b)" style="fill: none; stroke: #9467bd; stroke-width: 0.5"/>
    <path d="M 343.85207 127.208005 
L 343.85207 127.208005 
" clip-path="url(#pf1fd18d04b)" style="fill: none; stroke: #9467bd; stroke-width: 0.5"/>
    <path d="M 361.72156 127.208005 
L 361.72156 127.208005 
" clip-path="url(#pf1fd18d04b)" style="fill: none; stroke: #9467bd; stroke-width: 0.5"/>
    <path d="M 379.59105 127.208005 
L 379.59105 127.208005 
" clip-path="url(#pf1fd18d04b)" style="fill: none; stroke: #9467bd; stroke-width: 0.5"/>
    <path d="M 397.46054 127.208005 
L 397.46054 127.208005 
" clip-path="url(#pf1fd18d04b)" style="fill: none; stroke: #9467bd; stroke-width: 0.5"/>
    <path d="M 415.33003 127.208005 
L 415.33003 127.208005 
" clip-path="url(#pf1fd18d04b)" style="fill: none; stroke: #9467bd; stroke-width: 0.5"/>
   </g>
   <g id="LineCollection_6">
    <path d="M 57.940229 127.208005 
L 57.940229 127.208005 
" clip-path="url(#pf1fd18d04b)" style="fill: none; stroke: #8c564b; stroke-width: 0.5"/>
    <path d="M 75.809719 133.272353 
L 75.809719 133.123947 
" clip-path="url(#pf1fd18d04b)" style="fill: none; stroke: #8c564b; stroke-width: 0.5"/>
    <path d="M 93.679209 133.611475 
L 93.679209 133.371256 
" clip-path="url(#pf1fd18d04b)" style="fill: none; stroke: #8c564b; stroke-width: 0.5"/>
    <path d="M 111.548699 133.566571 
L 111.548699 133.269829 
" clip-path="url(#pf1fd18d04b)" style="fill: none; stroke: #8c564b; stroke-width: 0.5"/>
    <path d="M 129.418189 134.562148 
L 129.418189 134.215547 
" clip-path="url(#pf1fd18d04b)" style="fill: none; stroke: #8c564b; stroke-width: 0.5"/>
    <path d="M 147.287679 135.71086 
L 147.287679 135.321311 
" clip-path="url(#pf1fd18d04b)" style="fill: none; stroke: #8c564b; stroke-width: 0.5"/>
    <path d="M 165.157169 137.214729 
L 165.157169 136.784381 
" clip-path="url(#pf1fd18d04b)" style="fill: none; stroke: #8c564b; stroke-width: 0.5"/>
    <path d="M 183.026659 136.65529 
L 183.026659 136.186365 
" clip-path="url(#pf1fd18d04b)" style="fill: none; stroke: #8c564b; stroke-width: 0.5"/>
    <path d="M 200.896149 138.468131 
L 200.896149 137.969938 
" clip-path="url(#pf1fd18d04b)" style="fill: none; stroke: #8c564b; stroke-width: 0.5"/>
    <path d="M 218.765639 137.302987 
L 218.765639 136.771891 
" clip-path="url(#pf1fd18d04b)" style="fill: none; stroke: #8c564b; stroke-width: 0.5"/>
    <path d="M 236.635129 137.673966 
L 236.635129 137.108505 
" clip-path="url(#pf1fd18d04b)" style="fill: none; stroke: #8c564b; stroke-width: 0.5"/>
    <path d="M 254.504619 139.32845 
L 254.504619 138.737477 
" clip-path="url(#pf1fd18d04b)" style="fill: none; stroke: #8c564b; stroke-width: 0.5"/>
    <path d="M 272.37411 138.336442 
L 272.37411 137.712014 
" clip-path="url(#pf1fd18d04b)" style="fill: none; stroke: #8c564b; stroke-width: 0.5"/>
    <path d="M 290.2436 136.727 
L 290.2436 136.069321 
" clip-path="url(#pf1fd18d04b)" style="fill: none; stroke: #8c564b; stroke-width: 0.5"/>
    <path d="M 308.11309 136.13466 
L 308.11309 135.456289 
" clip-path="url(#pf1fd18d04b)" style="fill: none; stroke: #8c564b; stroke-width: 0.5"/>
    <path d="M 325.98258 136.965199 
L 325.98258 136.266858 
" clip-path="url(#pf1fd18d04b)" style="fill: none; stroke: #8c564b; stroke-width: 0.5"/>
    <path d="M 343.85207 136.632779 
L 343.85207 135.91359 
" clip-path="url(#pf1fd18d04b)" style="fill: none; stroke: #8c564b; stroke-width: 0.5"/>
    <path d="M 361.72156 136.23115 
L 361.72156 135.488014 
" clip-path="url(#pf1fd18d04b)" style="fill: none; stroke: #8c564b; stroke-width: 0.5"/>
    <path d="M 379.59105 137.23275 
L 379.59105 136.467622 
" clip-path="url(#pf1fd18d04b)" style="fill: none; stroke: #8c564b; stroke-width: 0.5"/>
    <path d="M 397.46054 137.075413 
L 397.46054 136.288706 
" clip-path="url(#pf1fd18d04b)" style="fill: none; stroke: #8c564b; stroke-width: 0.5"/>
    <path d="M 415.33003 139.035941 
L 415.33003 138.226078 
" clip-path="url(#pf1fd18d04b)" style="fill: none; stroke: #8c564b; stroke-width: 0.5"/>
   </g>
   <g id="line2d_18">
    <path d="M 57.940229 115.179807 
L 58.118942 115.076817 
L 58.279783 114.57189 
L 58.51211 112.887573 
L 59.012506 106.968593 
L 59.405674 103.676686 
L 59.638 103.165462 
L 59.977555 103.151609 
L 67.05458 103.256068 
L 67.215422 103.76381 
L 67.447748 105.452396 
L 67.966015 111.579091 
L 68.341312 114.658651 
L 68.573639 115.166356 
L 68.931064 115.179807 
L 75.990219 115.073867 
L 76.15106 114.563307 
L 76.383387 112.870455 
L 76.901654 106.742129 
L 77.276951 103.668863 
L 77.509277 103.164666 
L 77.866703 103.151609 
L 84.925857 103.259044 
L 85.086699 103.772428 
L 85.319026 105.469542 
L 85.837293 111.599476 
L 86.212589 114.666439 
L 86.444916 115.167137 
L 86.802342 115.179807 
L 93.861496 115.070865 
L 94.022338 114.554655 
L 94.254664 112.853281 
L 94.790802 106.520274 
L 95.166099 103.58729 
L 95.380555 103.163901 
L 95.755851 103.151609 
L 102.797135 103.262072 
L 102.957976 103.781114 
L 103.190303 105.486744 
L 103.726441 111.821111 
L 104.101738 114.747641 
L 104.316193 115.167888 
L 104.69149 115.179807 
L 111.714902 115.096028 
L 111.857872 114.707323 
L 112.072328 113.327693 
L 112.465496 108.871498 
L 112.965891 103.913874 
L 113.216089 103.184116 
L 113.448416 103.151609 
L 120.650541 103.236679 
L 120.793511 103.627796 
L 121.007966 105.011476 
L 121.401134 109.471181 
L 121.90153 114.422393 
L 122.151728 115.147999 
L 122.384054 115.179807 
L 129.586179 115.093435 
L 129.729149 114.699901 
L 129.943605 113.312174 
L 130.336773 108.848976 
L 130.837169 103.90419 
L 131.087366 103.182729 
L 131.319693 103.151609 
L 138.521818 103.239297 
L 138.664788 103.635252 
L 138.879243 105.027026 
L 139.272411 109.4937 
L 139.772807 114.432043 
L 140.023005 115.149367 
L 140.273203 115.179807 
L 147.457456 115.090792 
L 147.600427 114.692411 
L 147.814882 113.296593 
L 148.20805 108.826459 
L 148.708446 103.894576 
L 148.958644 103.18138 
L 149.208841 103.151609 
L 156.393095 103.241965 
L 156.553936 103.721753 
L 156.786263 105.367517 
L 157.268787 111.057963 
L 157.679827 114.618686 
L 157.912153 115.161984 
L 158.215965 115.179807 
L 165.328733 115.088099 
L 165.489575 114.605535 
L 165.721902 112.955476 
L 166.204426 107.26283 
L 166.615465 103.708658 
L 166.847792 103.16896 
L 167.151604 103.151609 
L 174.264372 103.244683 
L 174.425214 103.730027 
L 174.65754 105.384379 
L 175.140065 111.079202 
L 175.551104 114.626815 
L 175.783431 115.162923 
L 176.087242 115.179807 
L 183.200011 115.085355 
L 183.360852 114.597227 
L 183.593179 112.938586 
L 184.075703 107.241607 
L 184.486743 103.700562 
L 184.719069 103.168037 
L 185.040752 103.151609 
L 192.135649 103.247452 
L 192.296491 103.73837 
L 192.528817 105.401297 
L 193.011342 111.10041 
L 193.422381 114.634877 
L 193.654708 115.163829 
L 193.976391 115.179807 
L 201.071288 115.082561 
L 201.232129 114.58885 
L 201.464456 112.921639 
L 201.94698 107.220414 
L 202.35802 103.692535 
L 202.590346 103.167147 
L 202.912029 103.151609 
L 210.006926 103.250273 
L 210.167768 103.746781 
L 210.400095 105.418273 
L 210.90049 111.331608 
L 211.293658 114.64287 
L 211.525985 115.164703 
L 211.847668 115.179807 
L 218.942565 115.079715 
L 219.103407 114.580405 
L 219.335733 112.904634 
L 219.836129 106.989395 
L 220.229297 103.684576 
L 220.461624 103.166289 
L 220.801178 103.151609 
L 227.878204 103.253145 
L 228.039045 103.755261 
L 228.271372 105.435306 
L 228.771767 111.352427 
L 229.164936 114.650795 
L 229.397262 115.165545 
L 229.736816 115.179807 
L 236.813842 115.076817 
L 236.974684 114.57189 
L 237.20701 112.887573 
L 237.707406 106.968593 
L 238.100574 103.676686 
L 238.332901 103.165462 
L 238.672455 103.151609 
L 245.749481 103.256068 
L 245.910322 103.76381 
L 246.142649 105.452396 
L 246.660916 111.579091 
L 247.036213 114.658651 
L 247.268539 115.166356 
L 247.625965 115.179807 
L 254.685119 115.073867 
L 254.845961 114.563307 
L 255.078287 112.870455 
L 255.596555 106.742129 
L 255.971851 103.668863 
L 256.204178 103.164666 
L 256.561603 103.151609 
L 263.620758 103.259044 
L 263.781599 103.772428 
L 264.013926 105.469542 
L 264.532193 111.599476 
L 264.90749 114.666439 
L 265.139817 115.167137 
L 265.497242 115.179807 
L 272.556397 115.070865 
L 272.717238 114.554655 
L 272.949565 112.853281 
L 273.485703 106.520274 
L 273.861 103.58729 
L 274.075455 103.163901 
L 274.450752 103.151609 
L 281.492035 103.262072 
L 281.652877 103.781114 
L 281.885203 105.486744 
L 282.421342 111.821111 
L 282.796638 114.747641 
L 283.011094 115.167888 
L 283.386391 115.179807 
L 290.409802 115.096028 
L 290.552773 114.707323 
L 290.767228 113.327693 
L 291.160396 108.871498 
L 291.660792 103.913874 
L 291.91099 103.184116 
L 292.143316 103.151609 
L 299.345441 103.236679 
L 299.488411 103.627796 
L 299.702867 105.011476 
L 300.096035 109.471181 
L 300.59643 114.422393 
L 300.846628 115.147999 
L 301.078955 115.179807 
L 308.28108 115.093435 
L 308.42405 114.699901 
L 308.638505 113.312174 
L 309.031673 108.848976 
L 309.532069 103.90419 
L 309.782267 103.182729 
L 310.014594 103.151609 
L 317.216718 103.239297 
L 317.359688 103.635252 
L 317.574144 105.027026 
L 317.967312 109.4937 
L 318.467708 114.432043 
L 318.717906 115.149367 
L 318.968103 115.179807 
L 326.152357 115.090792 
L 326.295327 114.692411 
L 326.509782 113.296593 
L 326.90295 108.826459 
L 327.403346 103.894576 
L 327.653544 103.18138 
L 327.903742 103.151609 
L 335.087995 103.241965 
L 335.248837 103.721753 
L 335.481164 105.367517 
L 335.963688 111.057963 
L 336.374727 114.618686 
L 336.607054 115.161984 
L 336.910866 115.179807 
L 344.023634 115.088099 
L 344.184476 114.605535 
L 344.416802 112.955476 
L 344.899327 107.26283 
L 345.310366 103.708658 
L 345.542693 103.16896 
L 345.846504 103.151609 
L 352.959273 103.244683 
L 353.120114 103.730027 
L 353.352441 105.384379 
L 353.834965 111.079202 
L 354.246005 114.626815 
L 354.478331 115.162923 
L 354.782143 115.179807 
L 361.894911 115.085355 
L 362.055753 114.597227 
L 362.288079 112.938586 
L 362.770604 107.241607 
L 363.181643 103.700562 
L 363.41397 103.168037 
L 363.735653 103.151609 
L 370.83055 103.247452 
L 370.991391 103.73837 
L 371.223718 105.401297 
L 371.706242 111.10041 
L 372.117282 114.634877 
L 372.349608 115.163829 
L 372.671291 115.179807 
L 379.766188 115.082561 
L 379.92703 114.58885 
L 380.159356 112.921639 
L 380.641881 107.220414 
L 381.05292 103.692535 
L 381.285247 103.167147 
L 381.60693 103.151609 
L 388.701827 103.250273 
L 388.862668 103.746781 
L 389.094995 105.418273 
L 389.595391 111.331608 
L 389.988559 114.64287 
L 390.220886 115.164703 
L 390.542569 115.179807 
L 397.637466 115.079715 
L 397.798307 114.580405 
L 398.030634 112.904634 
L 398.531029 106.989395 
L 398.924197 103.684576 
L 399.156524 103.166289 
L 399.496078 103.151609 
L 406.573104 103.253145 
L 406.733946 103.755261 
L 406.966272 105.435306 
L 407.466668 111.352427 
L 407.859836 114.650795 
L 408.092163 115.165545 
L 408.431717 115.179807 
L 415.33003 115.179807 
L 415.33003 115.179807 
" clip-path="url(#pf1fd18d04b)" style="fill: none; stroke: #e377c2; stroke-width: 0.5; stroke-linecap: square"/>
   </g>
   <g id="line2d_19">
    <path d="M 57.940229 127.208005 
L 69.127648 127.110248 
L 69.377846 126.781447 
L 69.681658 125.939218 
L 70.235668 123.544214 
L 70.753935 121.727305 
L 71.075618 121.277291 
L 71.397301 121.194571 
L 73.273785 121.266706 
L 73.541854 121.574432 
L 73.863537 122.333836 
L 74.417546 124.348343 
L 75.096655 126.589252 
L 75.454081 127.112782 
L 75.775764 127.207907 
L 86.927441 127.153424 
L 87.177638 126.904151 
L 87.463579 126.232123 
L 87.892489 124.515348 
L 88.607341 121.763856 
L 88.929024 121.288549 
L 89.250707 121.194975 
L 91.127191 121.256942 
L 91.39526 121.547671 
L 91.716943 122.286339 
L 92.253081 124.214489 
L 92.967932 126.593198 
L 93.325358 127.114114 
L 93.647041 127.207921 
L 104.798718 127.152525 
L 105.048916 126.901325 
L 105.334856 126.226531 
L 105.763767 124.50718 
L 106.460746 121.801837 
L 106.782429 121.300799 
L 107.104112 121.195535 
L 108.962725 121.239118 
L 109.230794 121.494775 
L 109.534606 122.139616 
L 110.017131 123.799993 
L 110.839209 126.59713 
L 111.196635 127.115435 
L 111.518318 127.207934 
L 122.687866 127.141945 
L 122.938064 126.869142 
L 123.224004 126.163933 
L 123.670786 124.335103 
L 124.332024 121.797546 
L 124.653707 121.299388 
L 124.97539 121.195464 
L 126.834002 121.239965 
L 127.102072 121.497438 
L 127.405883 122.14451 
L 127.888408 123.806971 
L 128.710487 126.601049 
L 129.067912 127.116744 
L 129.389595 127.207946 
L 140.559143 127.140919 
L 140.809341 126.866116 
L 141.095282 126.158144 
L 141.542064 124.32689 
L 142.203301 121.793273 
L 142.524984 121.297989 
L 142.846667 121.195395 
L 144.70528 121.240822 
L 144.973349 121.500114 
L 145.277161 122.149417 
L 145.759685 123.813951 
L 146.581764 126.604955 
L 146.939189 127.118042 
L 147.260872 127.207957 
L 158.448292 127.128902 
L 158.69849 126.831707 
L 158.98443 126.093405 
L 159.466955 124.072065 
L 160.074578 121.789018 
L 160.396261 121.296603 
L 160.717944 121.195329 
L 162.576557 121.241688 
L 162.844626 121.502804 
L 163.166309 122.204174 
L 163.666705 123.961034 
L 164.453041 126.608847 
L 164.810466 127.119328 
L 165.132149 127.207966 
L 176.319569 127.127741 
L 176.569767 126.828477 
L 176.855707 126.087424 
L 177.338232 124.063852 
L 177.945855 121.78478 
L 178.267538 121.29523 
L 178.589221 121.195265 
L 180.447834 121.242565 
L 180.715903 121.505507 
L 181.037586 122.209222 
L 181.537982 123.968058 
L 182.324318 126.612726 
L 182.681744 127.120603 
L 183.003427 127.207974 
L 194.190846 127.126569 
L 194.441044 126.82523 
L 194.726984 126.081427 
L 195.209509 124.05564 
L 195.817132 121.78056 
L 196.138815 121.293869 
L 196.460498 121.195203 
L 198.319111 121.243452 
L 198.58718 121.508223 
L 198.908863 122.214282 
L 199.409259 123.975083 
L 200.177724 126.577337 
L 200.53515 127.108717 
L 200.856833 127.207852 
L 211.954896 127.177762 
L 212.205094 126.988295 
L 212.473163 126.456586 
L 212.84846 125.098842 
L 213.742023 121.65848 
L 214.063706 121.257589 
L 214.421132 121.193936 
L 216.261873 121.288916 
L 216.529943 121.631248 
L 216.869497 122.48725 
L 217.512863 124.891116 
L 218.084744 126.658237 
L 218.442169 127.135025 
L 218.765639 127.208005 
L 229.969143 127.097732 
L 230.219341 126.74942 
L 230.523153 125.8814 
L 231.148647 123.162156 
L 231.613301 121.654823 
L 231.934984 121.256599 
L 232.292409 121.193932 
L 234.133151 121.290258 
L 234.40122 121.634533 
L 234.740774 122.492882 
L 235.402011 124.966027 
L 235.973892 126.698261 
L 236.313446 127.136155 
L 236.635129 127.208005 
L 247.822549 127.110248 
L 248.072747 126.781447 
L 248.376559 125.939218 
L 248.930568 123.544214 
L 249.448835 121.727305 
L 249.770518 121.277291 
L 250.092201 121.194571 
L 251.968685 121.266706 
L 252.236754 121.574432 
L 252.558437 122.333836 
L 253.112447 124.348343 
L 253.791556 126.589252 
L 254.148981 127.112782 
L 254.470664 127.207907 
L 265.622341 127.153424 
L 265.872539 126.904151 
L 266.158479 126.232123 
L 266.58739 124.515348 
L 267.302241 121.763856 
L 267.623924 121.288549 
L 267.945607 121.194975 
L 269.822091 121.256942 
L 270.09016 121.547671 
L 270.411843 122.286339 
L 270.947982 124.214489 
L 271.662833 126.593198 
L 272.020258 127.114114 
L 272.341941 127.207921 
L 283.493618 127.152525 
L 283.743816 126.901325 
L 284.029757 126.226531 
L 284.458667 124.50718 
L 285.155647 121.801837 
L 285.47733 121.300799 
L 285.799013 121.195535 
L 287.657626 121.239118 
L 287.925695 121.494775 
L 288.229507 122.139616 
L 288.712031 123.799993 
L 289.53411 126.59713 
L 289.891535 127.115435 
L 290.213218 127.207934 
L 301.382767 127.141945 
L 301.632965 126.869142 
L 301.918905 126.163933 
L 302.365687 124.335103 
L 303.026924 121.797546 
L 303.348607 121.299388 
L 303.67029 121.195464 
L 305.528903 121.239965 
L 305.796972 121.497438 
L 306.100784 122.14451 
L 306.583308 123.806971 
L 307.405387 126.601049 
L 307.762813 127.116744 
L 308.084496 127.207946 
L 319.254044 127.140919 
L 319.504242 126.866116 
L 319.790182 126.158144 
L 320.236964 124.32689 
L 320.898201 121.793273 
L 321.219884 121.297989 
L 321.541567 121.195395 
L 323.40018 121.240822 
L 323.668249 121.500114 
L 323.972061 122.149417 
L 324.454585 123.813951 
L 325.276664 126.604955 
L 325.63409 127.118042 
L 325.955773 127.207957 
L 337.143192 127.128902 
L 337.39339 126.831707 
L 337.679331 126.093405 
L 338.161855 124.072065 
L 338.769479 121.789018 
L 339.091162 121.296603 
L 339.412844 121.195329 
L 341.271457 121.241688 
L 341.539526 121.502804 
L 341.861209 122.204174 
L 342.361605 123.961034 
L 343.147941 126.608847 
L 343.505367 127.119328 
L 343.82705 127.207966 
L 355.014469 127.127741 
L 355.264667 126.828477 
L 355.550608 126.087424 
L 356.033132 124.063852 
L 356.640756 121.78478 
L 356.962439 121.29523 
L 357.284122 121.195265 
L 359.142734 121.242565 
L 359.410804 121.505507 
L 359.732487 122.209222 
L 360.232882 123.968058 
L 361.019219 126.612726 
L 361.376644 127.120603 
L 361.698327 127.207974 
L 372.885747 127.126569 
L 373.135945 126.82523 
L 373.421885 126.081427 
L 373.904409 124.05564 
L 374.512033 121.78056 
L 374.833716 121.293869 
L 375.155399 121.195203 
L 377.014012 121.243452 
L 377.282081 121.508223 
L 377.603764 122.214282 
L 378.10416 123.975083 
L 378.872625 126.577337 
L 379.23005 127.108717 
L 379.551733 127.207852 
L 390.649796 127.177762 
L 390.899994 126.988295 
L 391.168063 126.456586 
L 391.54336 125.098842 
L 392.436924 121.65848 
L 392.758607 121.257589 
L 393.116032 121.193936 
L 394.956774 121.288916 
L 395.224843 121.631248 
L 395.564397 122.48725 
L 396.207763 124.891116 
L 396.779644 126.658237 
L 397.13707 127.135025 
L 397.46054 127.208005 
L 408.664044 127.097732 
L 408.914241 126.74942 
L 409.218053 125.8814 
L 409.843548 123.162156 
L 410.308201 121.654823 
L 410.629884 121.256599 
L 410.98731 121.193932 
L 412.828051 121.290258 
L 413.09612 121.634533 
L 413.435675 122.492882 
L 414.096912 124.966027 
L 414.668793 126.698261 
L 415.008347 127.136155 
L 415.33003 127.208005 
L 415.33003 127.208005 
" clip-path="url(#pf1fd18d04b)" style="fill: none; stroke: #7f7f7f; stroke-width: 0.5; stroke-linecap: square"/>
   </g>
   <g id="line2d_20">
    <path d="M 57.940229 127.208005 
L 60.102653 127.097215 
L 60.370723 126.73289 
L 60.728148 125.792763 
L 62.193593 121.3194 
L 62.497405 121.195631 
L 64.24879 121.222583 
L 64.516859 121.438405 
L 64.820671 122.0327 
L 65.267453 123.506286 
L 66.21463 126.700042 
L 66.554185 127.136716 
L 66.875868 127.208005 
L 77.956059 127.109947 
L 78.224129 126.76322 
L 78.563683 125.901919 
L 79.22492 123.42734 
L 79.796801 121.69917 
L 80.136355 121.264349 
L 80.458038 121.193906 
L 82.245166 121.292292 
L 82.513235 121.639486 
L 82.852789 122.501349 
L 83.514027 124.976199 
L 84.085907 126.703593 
L 84.425462 127.137829 
L 84.747145 127.208005 
L 95.827337 127.10858 
L 96.095406 126.759904 
L 96.43496 125.896264 
L 97.096197 123.420564 
L 97.650207 121.731644 
L 97.989761 121.27479 
L 98.311444 121.193913 
L 100.116443 121.293662 
L 100.384512 121.642806 
L 100.724066 122.507006 
L 101.385304 124.982974 
L 101.939313 126.671148 
L 102.278868 127.127412 
L 102.600551 127.207999 
L 113.698614 127.1072 
L 113.966683 126.756575 
L 114.306237 125.890599 
L 114.985346 123.346353 
L 115.539355 121.692102 
L 115.87891 121.262149 
L 116.200593 121.193906 
L 117.98772 121.295045 
L 118.255789 121.646138 
L 118.595344 122.512674 
L 119.274452 125.057172 
L 119.828462 126.710655 
L 120.168016 127.140024 
L 120.50757 127.208005 
L 131.569891 127.105809 
L 131.83796 126.753232 
L 132.177514 125.884924 
L 132.856623 123.339637 
L 133.410632 121.688588 
L 133.750187 121.261066 
L 134.089741 121.193906 
L 135.858997 121.296439 
L 136.127067 121.649484 
L 136.466621 122.518352 
L 137.145729 125.063886 
L 137.699739 126.714165 
L 138.039293 127.141105 
L 138.378848 127.208005 
L 149.441168 127.104406 
L 149.709237 126.749875 
L 150.048792 125.879238 
L 150.7279 123.332927 
L 151.28191 121.685088 
L 151.621464 121.259993 
L 151.961018 121.193906 
L 153.730275 121.297844 
L 153.998344 121.652844 
L 154.337898 122.52404 
L 155.034878 125.13738 
L 155.571016 126.717662 
L 155.91057 127.142175 
L 156.250125 127.208005 
L 167.312445 127.102991 
L 167.580514 126.746505 
L 167.920069 125.873543 
L 168.617048 123.259479 
L 169.153187 121.681601 
L 169.492741 121.258931 
L 169.832295 121.193906 
L 171.601552 121.299262 
L 171.869621 121.656218 
L 172.209175 122.529738 
L 172.906155 125.144028 
L 173.442293 126.721146 
L 173.781848 127.143235 
L 174.121402 127.208005 
L 185.183722 127.101565 
L 185.451792 126.743122 
L 185.809217 125.810235 
L 187.292533 121.308613 
L 187.596345 121.195008 
L 189.383473 121.243007 
L 189.651542 121.506863 
L 189.973225 122.211751 
L 190.47362 123.97157 
L 191.259957 126.614661 
L 191.617382 127.121236 
L 191.939065 127.207977 
L 203.019257 127.126686 
L 203.287326 126.805093 
L 203.62688 125.974495 
L 204.234504 123.722713 
L 204.842127 121.784317 
L 205.199553 121.279719 
L 205.521236 121.19393 
L 207.344106 121.302132 
L 207.612175 121.663005 
L 207.969601 122.598888 
L 209.452917 127.095149 
L 209.756729 127.206996 
L 213.295241 127.208005 
L 220.926277 127.098677 
L 221.194346 126.736314 
L 221.551772 125.798596 
L 223.017216 121.320989 
L 223.321028 121.195735 
L 225.054542 121.21616 
L 225.322611 121.413291 
L 225.608551 121.938597 
L 226.019591 123.230294 
L 227.091867 126.797535 
L 227.431422 127.164738 
L 227.806719 127.208005 
L 238.797554 127.097215 
L 239.065623 126.73289 
L 239.423049 125.792763 
L 240.888493 121.3194 
L 241.192305 121.195631 
L 242.94369 121.222583 
L 243.211759 121.438405 
L 243.515571 122.0327 
L 243.962353 123.506286 
L 244.909531 126.700042 
L 245.249085 127.136716 
L 245.570768 127.208005 
L 256.65096 127.109947 
L 256.919029 126.76322 
L 257.258583 125.901919 
L 257.919821 123.42734 
L 258.491701 121.69917 
L 258.831256 121.264349 
L 259.152939 121.193906 
L 260.940066 121.292292 
L 261.208136 121.639486 
L 261.54769 122.501349 
L 262.208927 124.976199 
L 262.780808 126.703593 
L 263.120362 127.137829 
L 263.442045 127.208005 
L 274.522237 127.10858 
L 274.790306 126.759904 
L 275.12986 125.896264 
L 275.791098 123.420564 
L 276.345107 121.731644 
L 276.684662 121.27479 
L 277.006345 121.193913 
L 278.811344 121.293662 
L 279.079413 121.642806 
L 279.418967 122.507006 
L 280.080204 124.982974 
L 280.634214 126.671148 
L 280.973768 127.127412 
L 281.295451 127.207999 
L 292.393514 127.1072 
L 292.661583 126.756575 
L 293.001138 125.890599 
L 293.680246 123.346353 
L 294.234256 121.692102 
L 294.57381 121.262149 
L 294.895493 121.193906 
L 296.682621 121.295045 
L 296.95069 121.646138 
L 297.290244 122.512674 
L 297.969353 125.057172 
L 298.523362 126.710655 
L 298.862917 127.140024 
L 299.202471 127.208005 
L 310.264791 127.105809 
L 310.532861 126.753232 
L 310.872415 125.884924 
L 311.551523 123.339637 
L 312.105533 121.688588 
L 312.445087 121.261066 
L 312.784641 121.193906 
L 314.553898 121.296439 
L 314.821967 121.649484 
L 315.161521 122.518352 
L 315.84063 125.063886 
L 316.394639 126.714165 
L 316.734194 127.141105 
L 317.073748 127.208005 
L 328.136069 127.104406 
L 328.404138 126.749875 
L 328.743692 125.879238 
L 329.422801 123.332927 
L 329.97681 121.685088 
L 330.316364 121.259993 
L 330.655919 121.193906 
L 332.425175 121.297844 
L 332.693244 121.652844 
L 333.032799 122.52404 
L 333.729778 125.13738 
L 334.265917 126.717662 
L 334.605471 127.142175 
L 334.945025 127.208005 
L 346.007346 127.102991 
L 346.275415 126.746505 
L 346.614969 125.873543 
L 347.311949 123.259479 
L 347.848087 121.681601 
L 348.187642 121.258931 
L 348.527196 121.193906 
L 350.296452 121.299262 
L 350.564521 121.656218 
L 350.904076 122.529738 
L 351.601056 125.144028 
L 352.137194 126.721146 
L 352.476748 127.143235 
L 352.816302 127.208005 
L 363.878623 127.101565 
L 364.146692 126.743122 
L 364.504118 125.810235 
L 365.987434 121.308613 
L 366.291245 121.195008 
L 368.078373 121.243007 
L 368.346442 121.506863 
L 368.668125 122.211751 
L 369.168521 123.97157 
L 369.954857 126.614661 
L 370.312283 127.121236 
L 370.633966 127.207977 
L 381.714158 127.126686 
L 381.982227 126.805093 
L 382.321781 125.974495 
L 382.929404 123.722713 
L 383.537028 121.784317 
L 383.894453 121.279719 
L 384.216136 121.19393 
L 386.039007 121.302132 
L 386.307076 121.663005 
L 386.664501 122.598888 
L 388.147817 127.095149 
L 388.451629 127.206996 
L 391.990142 127.208005 
L 399.621177 127.098677 
L 399.889246 126.736314 
L 400.246672 125.798596 
L 401.712117 121.320989 
L 402.015928 121.195735 
L 403.749442 121.21616 
L 404.017511 121.413291 
L 404.303452 121.938597 
L 404.714491 123.230294 
L 405.786768 126.797535 
L 406.126322 127.164738 
L 406.501619 127.208005 
L 415.33003 127.208005 
L 415.33003 127.208005 
" clip-path="url(#pf1fd18d04b)" style="fill: none; stroke: #bcbd22; stroke-width: 0.5; stroke-linecap: square"/>
   </g>
   <g id="line2d_21">
    <defs>
     <path id="m8b20740e1a" d="M 0 1 
C 0.265203 1 0.51958 0.894634 0.707107 0.707107 
C 0.894634 0.51958 1 0.265203 1 0 
C 1 -0.265203 0.894634 -0.51958 0.707107 -0.707107 
C 0.51958 -0.894634 0.265203 -1 0 -1 
C -0.265203 -1 -0.51958 -0.894634 -0.707107 -0.707107 
C -0.894634 -0.51958 -1 -0.265203 -1 0 
C -1 0.265203 -0.894634 0.51958 -0.707107 0.707107 
C -0.51958 0.894634 -0.265203 1 0 1 
z
"/>
    </defs>
    <g clip-path="url(#pf1fd18d04b)">
     <use xlink:href="#m8b20740e1a" x="57.940229" y="127.208005" style="fill: #1f77b4"/>
     <use xlink:href="#m8b20740e1a" x="75.809719" y="123.750701" style="fill: #1f77b4"/>
     <use xlink:href="#m8b20740e1a" x="93.679209" y="123.920104" style="fill: #1f77b4"/>
     <use xlink:href="#m8b20740e1a" x="111.548699" y="123.976614" style="fill: #1f77b4"/>
     <use xlink:href="#m8b20740e1a" x="129.418189" y="124.233382" style="fill: #1f77b4"/>
     <use xlink:href="#m8b20740e1a" x="147.287679" y="124.279751" style="fill: #1f77b4"/>
     <use xlink:href="#m8b20740e1a" x="165.157169" y="123.696362" style="fill: #1f77b4"/>
     <use xlink:href="#m8b20740e1a" x="183.026659" y="124.294427" style="fill: #1f77b4"/>
     <use xlink:href="#m8b20740e1a" x="200.896149" y="122.844322" style="fill: #1f77b4"/>
     <use xlink:href="#m8b20740e1a" x="218.765639" y="123.976132" style="fill: #1f77b4"/>
     <use xlink:href="#m8b20740e1a" x="236.635129" y="124.563733" style="fill: #1f77b4"/>
     <use xlink:href="#m8b20740e1a" x="254.504619" y="124.506218" style="fill: #1f77b4"/>
     <use xlink:href="#m8b20740e1a" x="272.37411" y="123.732057" style="fill: #1f77b4"/>
     <use xlink:href="#m8b20740e1a" x="290.2436" y="124.321652" style="fill: #1f77b4"/>
     <use xlink:href="#m8b20740e1a" x="308.11309" y="124.687316" style="fill: #1f77b4"/>
     <use xlink:href="#m8b20740e1a" x="325.98258" y="123.886081" style="fill: #1f77b4"/>
     <use xlink:href="#m8b20740e1a" x="343.85207" y="124.48429" style="fill: #1f77b4"/>
     <use xlink:href="#m8b20740e1a" x="361.72156" y="124.332544" style="fill: #1f77b4"/>
     <use xlink:href="#m8b20740e1a" x="379.59105" y="123.61259" style="fill: #1f77b4"/>
     <use xlink:href="#m8b20740e1a" x="397.46054" y="124.457817" style="fill: #1f77b4"/>
     <use xlink:href="#m8b20740e1a" x="415.33003" y="124.48801" style="fill: #1f77b4"/>
    </g>
   </g>
   <g id="line2d_22">
    <defs>
     <path id="mf34e94d7cc" d="M 0 1 
C 0.265203 1 0.51958 0.894634 0.707107 0.707107 
C 0.894634 0.51958 1 0.265203 1 0 
C 1 -0.265203 0.894634 -0.51958 0.707107 -0.707107 
C 0.51958 -0.894634 0.265203 -1 0 -1 
C -0.265203 -1 -0.51958 -0.894634 -0.707107 -0.707107 
C -0.894634 -0.51958 -1 -0.265203 -1 0 
C -1 0.265203 -0.894634 0.51958 -0.707107 0.707107 
C -0.51958 0.894634 -0.265203 1 0 1 
z
"/>
    </defs>
    <g clip-path="url(#pf1fd18d04b)">
     <use xlink:href="#mf34e94d7cc" x="57.940229" y="127.208005" style="fill: #ff7f0e"/>
     <use xlink:href="#mf34e94d7cc" x="75.809719" y="121.049747" style="fill: #ff7f0e"/>
     <use xlink:href="#mf34e94d7cc" x="93.679209" y="115.404121" style="fill: #ff7f0e"/>
     <use xlink:href="#mf34e94d7cc" x="111.548699" y="109.67913" style="fill: #ff7f0e"/>
     <use xlink:href="#mf34e94d7cc" x="129.418189" y="104.210216" style="fill: #ff7f0e"/>
     <use xlink:href="#mf34e94d7cc" x="147.287679" y="98.765508" style="fill: #ff7f0e"/>
     <use xlink:href="#mf34e94d7cc" x="165.157169" y="92.867179" style="fill: #ff7f0e"/>
     <use xlink:href="#mf34e94d7cc" x="183.026659" y="87.90675" style="fill: #ff7f0e"/>
     <use xlink:href="#mf34e94d7cc" x="200.896149" y="81.145141" style="fill: #ff7f0e"/>
     <use xlink:href="#mf34e94d7cc" x="218.765639" y="75.473701" style="fill: #ff7f0e"/>
     <use xlink:href="#mf34e94d7cc" x="236.635129" y="70.615165" style="fill: #ff7f0e"/>
     <use xlink:href="#mf34e94d7cc" x="254.504619" y="65.403315" style="fill: #ff7f0e"/>
     <use xlink:href="#mf34e94d7cc" x="272.37411" y="59.544812" style="fill: #ff7f0e"/>
     <use xlink:href="#mf34e94d7cc" x="290.2436" y="54.436549" style="fill: #ff7f0e"/>
     <use xlink:href="#mf34e94d7cc" x="308.11309" y="49.548618" style="fill: #ff7f0e"/>
     <use xlink:href="#mf34e94d7cc" x="325.98258" y="44.198459" style="fill: #ff7f0e"/>
     <use xlink:href="#mf34e94d7cc" x="343.85207" y="39.546461" style="fill: #ff7f0e"/>
     <use xlink:href="#mf34e94d7cc" x="361.72156" y="34.637301" style="fill: #ff7f0e"/>
     <use xlink:href="#mf34e94d7cc" x="379.59105" y="28.867245" style="fill: #ff7f0e"/>
     <use xlink:href="#mf34e94d7cc" x="397.46054" y="24.074748" style="fill: #ff7f0e"/>
     <use xlink:href="#mf34e94d7cc" x="415.33003" y="18.969388" style="fill: #ff7f0e"/>
    </g>
   </g>
   <g id="line2d_23">
    <defs>
     <path id="mfd6212158a" d="M 0 1 
C 0.265203 1 0.51958 0.894634 0.707107 0.707107 
C 0.894634 0.51958 1 0.265203 1 0 
C 1 -0.265203 0.894634 -0.51958 0.707107 -0.707107 
C 0.51958 -0.894634 0.265203 -1 0 -1 
C -0.265203 -1 -0.51958 -0.894634 -0.707107 -0.707107 
C -0.894634 -0.51958 -1 -0.265203 -1 0 
C -1 0.265203 -0.894634 0.51958 -0.707107 0.707107 
C -0.51958 0.894634 -0.265203 1 0 1 
z
"/>
    </defs>
    <g clip-path="url(#pf1fd18d04b)">
     <use xlink:href="#mfd6212158a" x="57.940229" y="127.208005" style="fill: #2ca02c"/>
     <use xlink:href="#mfd6212158a" x="75.809719" y="127.208005" style="fill: #2ca02c"/>
     <use xlink:href="#mfd6212158a" x="93.679209" y="127.208005" style="fill: #2ca02c"/>
     <use xlink:href="#mfd6212158a" x="111.548699" y="127.208005" style="fill: #2ca02c"/>
     <use xlink:href="#mfd6212158a" x="129.418189" y="127.208005" style="fill: #2ca02c"/>
     <use xlink:href="#mfd6212158a" x="147.287679" y="127.208005" style="fill: #2ca02c"/>
     <use xlink:href="#mfd6212158a" x="165.157169" y="127.208005" style="fill: #2ca02c"/>
     <use xlink:href="#mfd6212158a" x="183.026659" y="127.208005" style="fill: #2ca02c"/>
     <use xlink:href="#mfd6212158a" x="200.896149" y="127.208005" style="fill: #2ca02c"/>
     <use xlink:href="#mfd6212158a" x="218.765639" y="127.208005" style="fill: #2ca02c"/>
     <use xlink:href="#mfd6212158a" x="236.635129" y="127.208005" style="fill: #2ca02c"/>
     <use xlink:href="#mfd6212158a" x="254.504619" y="127.208005" style="fill: #2ca02c"/>
     <use xlink:href="#mfd6212158a" x="272.37411" y="127.208005" style="fill: #2ca02c"/>
     <use xlink:href="#mfd6212158a" x="290.2436" y="127.208005" style="fill: #2ca02c"/>
     <use xlink:href="#mfd6212158a" x="308.11309" y="127.208005" style="fill: #2ca02c"/>
     <use xlink:href="#mfd6212158a" x="325.98258" y="127.208005" style="fill: #2ca02c"/>
     <use xlink:href="#mfd6212158a" x="343.85207" y="127.208005" style="fill: #2ca02c"/>
     <use xlink:href="#mfd6212158a" x="361.72156" y="127.208005" style="fill: #2ca02c"/>
     <use xlink:href="#mfd6212158a" x="379.59105" y="127.208005" style="fill: #2ca02c"/>
     <use xlink:href="#mfd6212158a" x="397.46054" y="127.208005" style="fill: #2ca02c"/>
     <use xlink:href="#mfd6212158a" x="415.33003" y="127.208005" style="fill: #2ca02c"/>
    </g>
   </g>
   <g id="line2d_24">
    <defs>
     <path id="m1cb7eeb8b4" d="M 0 1 
C 0.265203 1 0.51958 0.894634 0.707107 0.707107 
C 0.894634 0.51958 1 0.265203 1 0 
C 1 -0.265203 0.894634 -0.51958 0.707107 -0.707107 
C 0.51958 -0.894634 0.265203 -1 0 -1 
C -0.265203 -1 -0.51958 -0.894634 -0.707107 -0.707107 
C -0.894634 -0.51958 -1 -0.265203 -1 0 
C -1 0.265203 -0.894634 0.51958 -0.707107 0.707107 
C -0.51958 0.894634 -0.265203 1 0 1 
z
"/>
    </defs>
    <g clip-path="url(#pf1fd18d04b)">
     <use xlink:href="#m1cb7eeb8b4" x="57.940229" y="127.208005" style="fill: #d62728"/>
     <use xlink:href="#m1cb7eeb8b4" x="75.809719" y="142.469351" style="fill: #d62728"/>
     <use xlink:href="#m1cb7eeb8b4" x="93.679209" y="147.364438" style="fill: #d62728"/>
     <use xlink:href="#m1cb7eeb8b4" x="111.548699" y="152.904884" style="fill: #d62728"/>
     <use xlink:href="#m1cb7eeb8b4" x="129.418189" y="159.666096" style="fill: #d62728"/>
     <use xlink:href="#m1cb7eeb8b4" x="147.287679" y="165.974235" style="fill: #d62728"/>
     <use xlink:href="#m1cb7eeb8b4" x="165.157169" y="173.256957" style="fill: #d62728"/>
     <use xlink:href="#m1cb7eeb8b4" x="183.026659" y="177.02565" style="fill: #d62728"/>
     <use xlink:href="#m1cb7eeb8b4" x="200.896149" y="184.72601" style="fill: #d62728"/>
     <use xlink:href="#m1cb7eeb8b4" x="218.765639" y="188.958776" style="fill: #d62728"/>
     <use xlink:href="#m1cb7eeb8b4" x="236.635129" y="193.491237" style="fill: #d62728"/>
     <use xlink:href="#m1cb7eeb8b4" x="254.504619" y="200.911009" style="fill: #d62728"/>
     <use xlink:href="#m1cb7eeb8b4" x="272.37411" y="207.466029" style="fill: #d62728"/>
     <use xlink:href="#m1cb7eeb8b4" x="290.2436" y="211.385631" style="fill: #d62728"/>
     <use xlink:href="#m1cb7eeb8b4" x="308.11309" y="215.785362" style="fill: #d62728"/>
     <use xlink:href="#m1cb7eeb8b4" x="325.98258" y="222.778557" style="fill: #d62728"/>
     <use xlink:href="#m1cb7eeb8b4" x="343.85207" y="227.247113" style="fill: #d62728"/>
     <use xlink:href="#m1cb7eeb8b4" x="361.72156" y="232.17209" style="fill: #d62728"/>
     <use xlink:href="#m1cb7eeb8b4" x="379.59105" y="239.708355" style="fill: #d62728"/>
     <use xlink:href="#m1cb7eeb8b4" x="397.46054" y="243.989462" style="fill: #d62728"/>
     <use xlink:href="#m1cb7eeb8b4" x="415.33003" y="251.464959" style="fill: #d62728"/>
    </g>
   </g>
   <g id="line2d_25">
    <defs>
     <path id="mff1dfee371" d="M 0 1 
C 0.265203 1 0.51958 0.894634 0.707107 0.707107 
C 0.894634 0.51958 1 0.265203 1 0 
C 1 -0.265203 0.894634 -0.51958 0.707107 -0.707107 
C 0.51958 -0.894634 0.265203 -1 0 -1 
C -0.265203 -1 -0.51958 -0.894634 -0.707107 -0.707107 
C -0.894634 -0.51958 -1 -0.265203 -1 0 
C -1 0.265203 -0.894634 0.51958 -0.707107 0.707107 
C -0.51958 0.894634 -0.265203 1 0 1 
z
"/>
    </defs>
    <g clip-path="url(#pf1fd18d04b)">
     <use xlink:href="#mff1dfee371" x="57.940229" y="127.208005" style="fill: #9467bd"/>
     <use xlink:href="#mff1dfee371" x="75.809719" y="127.208005" style="fill: #9467bd"/>
     <use xlink:href="#mff1dfee371" x="93.679209" y="127.208005" style="fill: #9467bd"/>
     <use xlink:href="#mff1dfee371" x="111.548699" y="127.208005" style="fill: #9467bd"/>
     <use xlink:href="#mff1dfee371" x="129.418189" y="127.208005" style="fill: #9467bd"/>
     <use xlink:href="#mff1dfee371" x="147.287679" y="127.208005" style="fill: #9467bd"/>
     <use xlink:href="#mff1dfee371" x="165.157169" y="127.208005" style="fill: #9467bd"/>
     <use xlink:href="#mff1dfee371" x="183.026659" y="127.208005" style="fill: #9467bd"/>
     <use xlink:href="#mff1dfee371" x="200.896149" y="127.208005" style="fill: #9467bd"/>
     <use xlink:href="#mff1dfee371" x="218.765639" y="127.208005" style="fill: #9467bd"/>
     <use xlink:href="#mff1dfee371" x="236.635129" y="127.208005" style="fill: #9467bd"/>
     <use xlink:href="#mff1dfee371" x="254.504619" y="127.208005" style="fill: #9467bd"/>
     <use xlink:href="#mff1dfee371" x="272.37411" y="127.208005" style="fill: #9467bd"/>
     <use xlink:href="#mff1dfee371" x="290.2436" y="127.208005" style="fill: #9467bd"/>
     <use xlink:href="#mff1dfee371" x="308.11309" y="127.208005" style="fill: #9467bd"/>
     <use xlink:href="#mff1dfee371" x="325.98258" y="127.208005" style="fill: #9467bd"/>
     <use xlink:href="#mff1dfee371" x="343.85207" y="127.208005" style="fill: #9467bd"/>
     <use xlink:href="#mff1dfee371" x="361.72156" y="127.208005" style="fill: #9467bd"/>
     <use xlink:href="#mff1dfee371" x="379.59105" y="127.208005" style="fill: #9467bd"/>
     <use xlink:href="#mff1dfee371" x="397.46054" y="127.208005" style="fill: #9467bd"/>
     <use xlink:href="#mff1dfee371" x="415.33003" y="127.208005" style="fill: #9467bd"/>
    </g>
   </g>
   <g id="line2d_26">
    <path d="M 57.940229 127.208005 
L 75.809719 133.19815 
L 93.679209 133.491366 
L 111.548699 133.4182 
L 129.418189 134.388847 
L 147.287679 135.516085 
L 165.157169 136.999555 
L 183.026659 136.420827 
L 200.896149 138.219035 
L 218.765639 137.037439 
L 236.635129 137.391235 
L 254.504619 139.032963 
L 272.37411 138.024228 
L 290.2436 136.398161 
L 308.11309 135.795475 
L 325.98258 136.616028 
L 343.85207 136.273184 
L 361.72156 135.859582 
L 379.59105 136.850186 
L 397.46054 136.68206 
L 415.33003 138.63101 
" clip-path="url(#pf1fd18d04b)" style="fill: none; stroke-dasharray: 1.85,0.8; stroke-dashoffset: 0; stroke: #8c564b; stroke-width: 0.5"/>
    <defs>
     <path id="m927807590d" d="M 0 1 
C 0.265203 1 0.51958 0.894634 0.707107 0.707107 
C 0.894634 0.51958 1 0.265203 1 0 
C 1 -0.265203 0.894634 -0.51958 0.707107 -0.707107 
C 0.51958 -0.894634 0.265203 -1 0 -1 
C -0.265203 -1 -0.51958 -0.894634 -0.707107 -0.707107 
C -0.894634 -0.51958 -1 -0.265203 -1 0 
C -1 0.265203 -0.894634 0.51958 -0.707107 0.707107 
C -0.51958 0.894634 -0.265203 1 0 1 
z
"/>
    </defs>
    <g clip-path="url(#pf1fd18d04b)">
     <use xlink:href="#m927807590d" x="57.940229" y="127.208005" style="fill: #8c564b"/>
     <use xlink:href="#m927807590d" x="75.809719" y="133.19815" style="fill: #8c564b"/>
     <use xlink:href="#m927807590d" x="93.679209" y="133.491366" style="fill: #8c564b"/>
     <use xlink:href="#m927807590d" x="111.548699" y="133.4182" style="fill: #8c564b"/>
     <use xlink:href="#m927807590d" x="129.418189" y="134.388847" style="fill: #8c564b"/>
     <use xlink:href="#m927807590d" x="147.287679" y="135.516085" style="fill: #8c564b"/>
     <use xlink:href="#m927807590d" x="165.157169" y="136.999555" style="fill: #8c564b"/>
     <use xlink:href="#m927807590d" x="183.026659" y="136.420827" style="fill: #8c564b"/>
     <use xlink:href="#m927807590d" x="200.896149" y="138.219035" style="fill: #8c564b"/>
     <use xlink:href="#m927807590d" x="218.765639" y="137.037439" style="fill: #8c564b"/>
     <use xlink:href="#m927807590d" x="236.635129" y="137.391235" style="fill: #8c564b"/>
     <use xlink:href="#m927807590d" x="254.504619" y="139.032963" style="fill: #8c564b"/>
     <use xlink:href="#m927807590d" x="272.37411" y="138.024228" style="fill: #8c564b"/>
     <use xlink:href="#m927807590d" x="290.2436" y="136.398161" style="fill: #8c564b"/>
     <use xlink:href="#m927807590d" x="308.11309" y="135.795475" style="fill: #8c564b"/>
     <use xlink:href="#m927807590d" x="325.98258" y="136.616028" style="fill: #8c564b"/>
     <use xlink:href="#m927807590d" x="343.85207" y="136.273184" style="fill: #8c564b"/>
     <use xlink:href="#m927807590d" x="361.72156" y="135.859582" style="fill: #8c564b"/>
     <use xlink:href="#m927807590d" x="379.59105" y="136.850186" style="fill: #8c564b"/>
     <use xlink:href="#m927807590d" x="397.46054" y="136.68206" style="fill: #8c564b"/>
     <use xlink:href="#m927807590d" x="415.33003" y="138.63101" style="fill: #8c564b"/>
    </g>
   </g>
   <g id="patch_3">
    <path d="M 40.070739 264.17436 
L 40.070739 7.2 
" style="fill: none; stroke: #000000; stroke-width: 0.8; stroke-linejoin: miter; stroke-linecap: square"/>
   </g>
   <g id="patch_4">
    <path d="M 433.19952 264.17436 
L 433.19952 7.2 
" style="fill: none; stroke: #000000; stroke-width: 0.8; stroke-linejoin: miter; stroke-linecap: square"/>
   </g>
   <g id="patch_5">
    <path d="M 40.070739 264.17436 
L 433.19952 264.17436 
" style="fill: none; stroke: #000000; stroke-width: 0.8; stroke-linejoin: miter; stroke-linecap: square"/>
   </g>
   <g id="patch_6">
    <path d="M 40.070739 7.2 
L 433.19952 7.2 
" style="fill: none; stroke: #000000; stroke-width: 0.8; stroke-linejoin: miter; stroke-linecap: square"/>
   </g>
   <g id="legend_1">
    <g id="patch_7">
     <path d="M 44.970739 75.538014 
L 106.130875 75.538014 
Q 107.530875 75.538014 107.530875 74.138014 
L 107.530875 12.1 
Q 107.530875 10.7 106.130875 10.7 
L 44.970739 10.7 
Q 43.570739 10.7 43.570739 12.1 
L 43.570739 74.138014 
Q 43.570739 75.538014 44.970739 75.538014 
z
" style="fill: #ffffff; opacity: 0.8; stroke: #cccccc; stroke-width: 0.24; stroke-linejoin: miter"/>
    </g>
    <g id="LineCollection_7">
     <path d="M 53.370739 19.539757 
L 53.370739 12.539757 
" style="fill: none; stroke: #1f77b4; stroke-width: 0.5"/>
    </g>
    <g id="line2d_27"/>
    <g id="line2d_28">
     <g>
      <use xlink:href="#m8b20740e1a" x="53.370739" y="16.039757" style="fill: #1f77b4"/>
     </g>
    </g>
    <g id="text_20">
     <!-- System -->
     <g transform="translate(65.970739 18.489757)scale(0.07 -0.07)">
      <defs>
       <path id="URWPalladioL-Roma-53" d="M 2861 3371 
C 2861 3711 2886 3928 2950 4274 
C 2438 4480 2150 4544 1798 4544 
C 845 4544 154 3941 154 3102 
C 154 2788 237 2557 422 2384 
C 640 2186 934 2083 1555 2000 
C 2048 1929 2272 1859 2438 1711 
C 2605 1577 2682 1391 2682 1147 
C 2682 571 2202 154 1536 154 
C 1024 154 525 404 493 666 
L 442 1096 
L 237 1096 
C 243 980 243 878 243 840 
C 243 545 230 404 192 116 
C 557 -45 928 -128 1299 -128 
C 2413 -128 3219 545 3219 1474 
C 3219 1775 3136 1987 2957 2153 
C 2733 2364 2464 2448 1747 2544 
C 966 2646 691 2858 691 3352 
C 691 3890 1094 4274 1658 4274 
C 1907 4274 2144 4223 2317 4127 
C 2528 4018 2598 3922 2618 3737 
L 2656 3371 
L 2861 3371 
z
" transform="scale(0.015625)"/>
       <path id="URWPalladioL-Roma-73" d="M 262 917 
C 262 475 243 282 192 26 
C 525 -83 774 -128 1069 -128 
C 1907 -128 2502 321 2502 949 
C 2502 1148 2445 1295 2323 1424 
C 2157 1584 1946 1661 1382 1770 
C 858 1873 685 2001 685 2296 
C 685 2616 909 2796 1299 2796 
C 1728 2796 2054 2572 2054 2270 
L 2054 2123 
L 2234 2123 
C 2240 2495 2246 2648 2266 2847 
C 1926 2963 1696 3008 1434 3008 
C 691 3008 237 2655 237 2078 
C 237 1770 378 1552 672 1417 
C 845 1340 1184 1238 1619 1141 
C 1907 1077 2029 943 2029 699 
C 2029 353 1709 109 1254 109 
C 787 109 454 333 454 654 
L 454 917 
L 262 917 
z
" transform="scale(0.015625)"/>
       <path id="URWPalladioL-Roma-74" d="M 627 2476 
L 627 619 
C 627 142 838 -64 1331 -64 
C 1478 -64 1632 -32 1670 13 
L 1978 353 
L 1894 463 
C 1734 372 1638 340 1517 340 
C 1267 340 1165 470 1165 788 
L 1165 2489 
L 1984 2489 
L 2042 2816 
L 1165 2816 
L 1165 3056 
C 1165 3321 1184 3547 1235 3951 
L 1158 4021 
C 1005 3925 813 3842 614 3778 
C 634 3585 640 3463 640 3271 
L 640 2822 
L 141 2598 
L 141 2476 
L 627 2476 
z
" transform="scale(0.015625)"/>
       <path id="URWPalladioL-Roma-6d" d="M 115 2565 
L 352 2565 
C 608 2565 634 2520 634 2094 
L 634 643 
C 634 237 614 192 397 192 
L 102 192 
L 102 -7 
C 717 -7 736 -7 915 -7 
C 1094 -7 1261 -7 1677 -7 
L 1677 179 
L 1408 205 
C 1190 205 1171 250 1171 654 
L 1171 2014 
C 1171 2302 1594 2616 1978 2616 
C 2323 2616 2560 2287 2560 1798 
L 2560 643 
C 2560 237 2541 192 2323 192 
L 2029 192 
L 2029 -7 
C 2669 -7 2669 -7 2829 -7 
C 2989 -7 2989 -7 3629 -7 
L 3629 192 
L 3334 192 
C 3117 192 3098 237 3098 643 
L 3098 2011 
C 3098 2300 3520 2616 3904 2616 
C 4250 2616 4486 2291 4486 1806 
L 4486 -7 
C 4877 -7 4883 -7 4992 -7 
C 5075 -7 5075 -7 5562 -7 
L 5562 192 
L 5261 192 
C 5043 192 5024 237 5024 643 
L 5024 1970 
C 5024 2608 4653 3008 4064 3008 
C 3840 3008 3654 2950 3539 2847 
L 3053 2412 
C 2848 2834 2586 3008 2144 3008 
C 1907 3008 1728 2950 1613 2847 
L 1171 2437 
L 1171 2982 
L 1114 3008 
C 787 2873 454 2783 115 2745 
L 115 2565 
z
" transform="scale(0.015625)"/>
      </defs>
      <use xlink:href="#URWPalladioL-Roma-53" transform="scale(0.996264)"/>
      <use xlink:href="#URWPalladioL-Roma-79" transform="translate(52.303815 0)scale(0.996264)"/>
      <use xlink:href="#URWPalladioL-Roma-73" transform="translate(107.695492 0)scale(0.996264)"/>
      <use xlink:href="#URWPalladioL-Roma-74" transform="translate(149.936958 0)scale(0.996264)"/>
      <use xlink:href="#URWPalladioL-Roma-65" transform="translate(182.414046 0)scale(0.996264)"/>
      <use xlink:href="#URWPalladioL-Roma-6d" transform="translate(230.134341 0)scale(0.996264)"/>
     </g>
    </g>
    <g id="LineCollection_8">
     <path d="M 53.370739 29.996093 
L 53.370739 22.996093 
" style="fill: none; stroke: #ff7f0e; stroke-width: 0.5"/>
    </g>
    <g id="line2d_29"/>
    <g id="line2d_30">
     <g>
      <use xlink:href="#mf34e94d7cc" x="53.370739" y="26.496093" style="fill: #ff7f0e"/>
     </g>
    </g>
    <g id="text_21">
     <!-- Bath 1 -->
     <g transform="translate(65.970739 28.946093)scale(0.07 -0.07)">
      <defs>
       <path id="URWPalladioL-Roma-42" d="M 2163 4416 
C 1274 4416 1274 4416 1178 4416 
C 1056 4416 1056 4416 166 4416 
L 166 4236 
L 397 4217 
C 698 4191 723 4146 723 3643 
L 723 619 
C 723 384 672 243 582 205 
L 416 141 
L 416 0 
C 858 0 992 0 1114 0 
C 1184 0 1254 0 1331 0 
C 1843 0 1843 0 1907 0 
C 2374 0 2797 114 3085 324 
C 3462 590 3686 1022 3686 1467 
C 3686 1791 3558 2051 3315 2223 
C 3072 2401 2854 2458 2362 2496 
C 2675 2559 2822 2617 3002 2738 
C 3309 2947 3469 3221 3469 3552 
C 3469 4111 3066 4416 2323 4416 
L 2163 4416 
z
M 1331 2323 
C 1581 2323 1638 2323 1760 2323 
C 2624 2323 3027 2013 3027 1335 
C 3027 662 2586 263 1824 263 
C 1638 263 1491 276 1331 314 
L 1331 2323 
z
M 1331 4121 
C 1498 4159 1645 4172 1850 4172 
C 2534 4172 2835 3942 2835 3414 
C 2835 2859 2451 2560 1722 2560 
C 1613 2560 1530 2560 1331 2560 
L 1331 4121 
z
" transform="scale(0.015625)"/>
       <path id="URWPalladioL-Roma-61" d="M 2074 538 
L 2042 -1 
C 2458 -1 2458 -1 2541 -1 
C 2573 -1 2733 -1 3014 -1 
L 3014 192 
L 2765 192 
C 2611 192 2586 244 2586 558 
L 2586 1731 
C 2586 2668 2317 3008 1574 3008 
C 1299 3008 1043 2937 800 2791 
L 461 2585 
L 461 2171 
L 627 2126 
L 710 2323 
C 845 2623 909 2668 1203 2668 
C 1805 2668 2054 2431 2074 1852 
L 1440 1736 
C 570 1577 205 1277 205 722 
C 205 224 506 -64 1011 -64 
C 1126 -64 1235 -45 1280 -13 
L 2074 538 
z
M 2074 806 
C 1888 544 1485 302 1235 302 
C 979 302 755 538 755 812 
C 755 1048 883 1271 1075 1392 
C 1235 1488 1587 1577 2074 1648 
L 2074 806 
z
" transform="scale(0.015625)"/>
       <path id="URWPalladioL-Roma-68" d="M 45 4248 
L 403 4248 
C 518 4248 563 4177 563 3984 
L 563 643 
C 563 237 544 192 326 192 
L 38 192 
L 38 -7 
C 474 -7 646 -7 832 -7 
C 1018 -7 1190 -7 1626 -7 
L 1626 192 
L 1338 192 
C 1120 192 1101 237 1101 643 
L 1101 2011 
C 1101 2300 1523 2616 1914 2616 
C 2342 2616 2624 2297 2624 1806 
L 2624 -7 
C 3014 -7 3021 -7 3130 -7 
C 3219 -7 3219 -7 3661 -7 
L 3661 179 
L 3398 205 
C 3181 205 3162 244 3162 654 
L 3162 1892 
C 3162 2642 2810 3008 2093 3008 
C 1856 3008 1722 2963 1587 2847 
L 1101 2424 
L 1101 4613 
L 1043 4665 
C 762 4556 550 4504 45 4427 
L 45 4248 
z
" transform="scale(0.015625)"/>
      </defs>
      <use xlink:href="#URWPalladioL-Roma-42" transform="scale(0.996264)"/>
      <use xlink:href="#URWPalladioL-Roma-61" transform="translate(60.871631 0)scale(0.996264)"/>
      <use xlink:href="#URWPalladioL-Roma-74" transform="translate(110.684831 0)scale(0.996264)"/>
      <use xlink:href="#URWPalladioL-Roma-68" transform="translate(143.161919 0)scale(0.996264)"/>
      <use xlink:href="#URWPalladioL-Roma-31" transform="translate(226.05058 0)scale(0.996264)"/>
     </g>
    </g>
    <g id="LineCollection_9">
     <path d="M 53.370739 40.452428 
L 53.370739 33.452428 
" style="fill: none; stroke: #2ca02c; stroke-width: 0.5"/>
    </g>
    <g id="line2d_31"/>
    <g id="line2d_32">
     <g>
      <use xlink:href="#mfd6212158a" x="53.370739" y="36.952428" style="fill: #2ca02c"/>
     </g>
    </g>
    <g id="text_22">
     <!-- Interaction 1 -->
     <g transform="translate(65.970739 39.402428)scale(0.07 -0.07)">
      <defs>
       <path id="URWPalladioL-Roma-49" d="M 1382 3663 
C 1382 4172 1414 4224 1709 4224 
L 2016 4224 
L 2016 4423 
C 1549 4423 1408 4423 1075 4423 
C 755 4423 602 4423 141 4423 
L 141 4224 
L 448 4224 
C 742 4224 774 4172 774 3663 
L 774 766 
C 774 256 742 205 448 205 
L 141 205 
L 141 0 
C 518 0 742 0 1075 0 
C 1408 0 1638 0 2016 0 
L 2016 205 
L 1709 205 
C 1414 205 1382 256 1382 766 
L 1382 3663 
z
" transform="scale(0.015625)"/>
       <path id="URWPalladioL-Roma-63" d="M 2554 1994 
C 2554 2289 2586 2552 2643 2783 
C 2387 2937 2163 3008 1901 3008 
C 1594 3008 1235 2886 851 2642 
C 403 2360 166 1911 166 1347 
C 166 481 774 -128 1632 -128 
C 1965 -128 2445 -6 2509 90 
L 2643 295 
L 2579 391 
C 2342 263 2138 205 1907 205 
C 1197 205 730 757 730 1603 
C 730 2289 1050 2674 1626 2674 
C 1907 2674 2214 2546 2330 2386 
L 2374 1994 
L 2554 1994 
z
" transform="scale(0.015625)"/>
       <path id="URWPalladioL-Roma-69" d="M 1203 2993 
L 1146 3019 
C 819 2884 486 2793 147 2755 
L 147 2576 
L 384 2576 
C 640 2576 666 2531 666 2105 
L 666 651 
C 666 244 646 199 429 199 
L 134 199 
L 134 0 
C 774 0 774 0 934 0 
C 1094 0 1094 0 1734 0 
L 1734 199 
L 1440 199 
C 1222 199 1203 244 1203 651 
L 1203 2993 
z
M 909 4416 
C 717 4416 550 4249 550 4056 
C 550 3870 717 3704 902 3704 
C 1088 3704 1261 3870 1261 4056 
C 1261 4236 1088 4416 909 4416 
z
" transform="scale(0.015625)"/>
       <path id="URWPalladioL-Roma-6f" d="M 1786 3008 
C 851 3008 205 2347 205 1392 
C 205 487 774 -128 1600 -128 
C 2586 -128 3290 558 3290 1520 
C 3290 2386 2662 3008 1786 3008 
z
M 1670 2796 
C 2259 2796 2694 2155 2694 1283 
C 2694 545 2368 83 1850 83 
C 1222 83 800 699 800 1610 
C 800 2379 1107 2796 1670 2796 
z
" transform="scale(0.015625)"/>
      </defs>
      <use xlink:href="#URWPalladioL-Roma-49" transform="scale(0.996264)"/>
      <use xlink:href="#URWPalladioL-Roma-6e" transform="translate(33.574079 0)scale(0.996264)"/>
      <use xlink:href="#URWPalladioL-Roma-74" transform="translate(91.55614 0)scale(0.996264)"/>
      <use xlink:href="#URWPalladioL-Roma-65" transform="translate(124.033227 0)scale(0.996264)"/>
      <use xlink:href="#URWPalladioL-Roma-72" transform="translate(171.753523 0)scale(0.996264)"/>
      <use xlink:href="#URWPalladioL-Roma-61" transform="translate(211.105419 0)scale(0.996264)"/>
      <use xlink:href="#URWPalladioL-Roma-63" transform="translate(260.918619 0)scale(0.996264)"/>
      <use xlink:href="#URWPalladioL-Roma-74" transform="translate(305.152188 0)scale(0.996264)"/>
      <use xlink:href="#URWPalladioL-Roma-69" transform="translate(337.629276 0)scale(0.996264)"/>
      <use xlink:href="#URWPalladioL-Roma-6f" transform="translate(366.619637 0)scale(0.996264)"/>
      <use xlink:href="#URWPalladioL-Roma-6e" transform="translate(421.015218 0)scale(0.996264)"/>
      <use xlink:href="#URWPalladioL-Roma-31" transform="translate(503.903879 0)scale(0.996264)"/>
     </g>
    </g>
    <g id="LineCollection_10">
     <path d="M 53.370739 50.908764 
L 53.370739 43.908764 
" style="fill: none; stroke: #d62728; stroke-width: 0.5"/>
    </g>
    <g id="line2d_33"/>
    <g id="line2d_34">
     <g>
      <use xlink:href="#m1cb7eeb8b4" x="53.370739" y="47.408764" style="fill: #d62728"/>
     </g>
    </g>
    <g id="text_23">
     <!-- Bath 2 -->
     <g transform="translate(65.970739 49.858764)scale(0.07 -0.07)">
      <use xlink:href="#URWPalladioL-Roma-42" transform="scale(0.996264)"/>
      <use xlink:href="#URWPalladioL-Roma-61" transform="translate(60.871631 0)scale(0.996264)"/>
      <use xlink:href="#URWPalladioL-Roma-74" transform="translate(110.684831 0)scale(0.996264)"/>
      <use xlink:href="#URWPalladioL-Roma-68" transform="translate(143.161919 0)scale(0.996264)"/>
      <use xlink:href="#URWPalladioL-Roma-32" transform="translate(226.05058 0)scale(0.996264)"/>
     </g>
    </g>
    <g id="LineCollection_11">
     <path d="M 53.370739 61.3651 
L 53.370739 54.3651 
" style="fill: none; stroke: #9467bd; stroke-width: 0.5"/>
    </g>
    <g id="line2d_35"/>
    <g id="line2d_36">
     <g>
      <use xlink:href="#mff1dfee371" x="53.370739" y="57.8651" style="fill: #9467bd"/>
     </g>
    </g>
    <g id="text_24">
     <!-- Interaction 2 -->
     <g transform="translate(65.970739 60.3151)scale(0.07 -0.07)">
      <use xlink:href="#URWPalladioL-Roma-49" transform="scale(0.996264)"/>
      <use xlink:href="#URWPalladioL-Roma-6e" transform="translate(33.574079 0)scale(0.996264)"/>
      <use xlink:href="#URWPalladioL-Roma-74" transform="translate(91.55614 0)scale(0.996264)"/>
      <use xlink:href="#URWPalladioL-Roma-65" transform="translate(124.033227 0)scale(0.996264)"/>
      <use xlink:href="#URWPalladioL-Roma-72" transform="translate(171.753523 0)scale(0.996264)"/>
      <use xlink:href="#URWPalladioL-Roma-61" transform="translate(211.105419 0)scale(0.996264)"/>
      <use xlink:href="#URWPalladioL-Roma-63" transform="translate(260.918619 0)scale(0.996264)"/>
      <use xlink:href="#URWPalladioL-Roma-74" transform="translate(305.152188 0)scale(0.996264)"/>
      <use xlink:href="#URWPalladioL-Roma-69" transform="translate(337.629276 0)scale(0.996264)"/>
      <use xlink:href="#URWPalladioL-Roma-6f" transform="translate(366.619637 0)scale(0.996264)"/>
      <use xlink:href="#URWPalladioL-Roma-6e" transform="translate(421.015218 0)scale(0.996264)"/>
      <use xlink:href="#URWPalladioL-Roma-32" transform="translate(503.903879 0)scale(0.996264)"/>
     </g>
    </g>
    <g id="LineCollection_12">
     <path d="M 53.370739 71.821435 
L 53.370739 64.821435 
" style="fill: none; stroke: #8c564b; stroke-width: 0.5"/>
    </g>
    <g id="line2d_37">
     <path d="M 46.370739 68.321435 
L 60.370739 68.321435 
" style="fill: none; stroke-dasharray: 1.85,0.8; stroke-dashoffset: 0; stroke: #8c564b; stroke-width: 0.5"/>
    </g>
    <g id="line2d_38">
     <g>
      <use xlink:href="#m927807590d" x="53.370739" y="68.321435" style="fill: #8c564b"/>
     </g>
    </g>
    <g id="text_25">
     <!-- Total -->
     <g transform="translate(65.970739 70.771435)scale(0.07 -0.07)">
      <defs>
       <path id="URWPalladioL-Roma-54" d="M 1632 4114 
C 1651 3896 1658 3749 1658 3473 
L 1658 763 
C 1658 256 1626 205 1331 205 
L 1024 205 
L 1024 0 
C 1402 0 1626 0 1958 0 
C 2291 0 2522 0 2899 0 
L 2899 205 
L 2592 205 
C 2298 205 2266 256 2266 763 
L 2266 3473 
C 2266 3762 2272 3903 2291 4114 
L 3283 4114 
C 3462 4114 3533 4057 3539 3904 
L 3565 3400 
L 3763 3400 
C 3763 3810 3776 4056 3808 4416 
C 3347 4416 3136 4416 2957 4416 
C 2707 4416 2522 4416 2426 4416 
L 1414 4416 
C 1350 4416 1005 4416 550 4416 
L 115 4416 
C 147 4056 160 3810 160 3400 
L 358 3400 
L 384 3904 
C 390 4057 461 4114 640 4114 
L 1632 4114 
z
" transform="scale(0.015625)"/>
       <path id="URWPalladioL-Roma-6c" d="M 147 4256 
L 506 4256 
C 621 4256 666 4185 666 3992 
L 666 651 
C 666 244 646 199 429 199 
L 134 199 
L 134 0 
C 774 0 774 0 934 0 
C 1094 0 1094 0 1734 0 
L 1734 199 
L 1440 199 
C 1222 199 1203 244 1203 650 
L 1203 4621 
L 1146 4673 
C 864 4564 653 4512 147 4435 
L 147 4256 
z
" transform="scale(0.015625)"/>
      </defs>
      <use xlink:href="#URWPalladioL-Roma-54" transform="scale(0.996264)"/>
      <use xlink:href="#URWPalladioL-Roma-6f" transform="translate(51.904951 0)scale(0.996264)"/>
      <use xlink:href="#URWPalladioL-Roma-74" transform="translate(106.300531 0)scale(0.996264)"/>
      <use xlink:href="#URWPalladioL-Roma-61" transform="translate(138.777619 0)scale(0.996264)"/>
      <use xlink:href="#URWPalladioL-Roma-6c" transform="translate(188.590819 0)scale(0.996264)"/>
     </g>
    </g>
   </g>
  </g>
 </g>
 <defs>
  <clipPath id="pf1fd18d04b">
   <rect x="40.070739" y="7.2" width="393.128781" height="256.97436"/>
  </clipPath>
 </defs>
</svg>
