<?xml version="1.0" encoding="utf-8" standalone="no"?>
<!DOCTYPE svg PUBLIC "-//W3C//DTD SVG 1.1//EN"
  "http://www.w3.org/Graphics/SVG/1.1/DTD/svg11.dtd">
<svg height="248.518125pt" version="1.1" viewBox="0 0 386.845313 248.518125" width="386.845313pt" xmlns="http://www.w3.org/2000/svg" xmlns:xlink="http://www.w3.org/1999/xlink">
 <metadata>
  <rdf:RDF xmlns:cc="http://creativecommons.org/ns#" xmlns:dc="http://purl.org/dc/elements/1.1/" xmlns:rdf="http://www.w3.org/1999/02/22-rdf-syntax-ns#">
   <cc:Work>
    <dc:type rdf:resource="http://purl.org/dc/dcmitype/StillImage"/>
    <dc:date>1980-01-01T00:00:00+00:00</dc:date>
    <dc:format>image/svg+xml</dc:format>
    <dc:creator>
     <cc:Agent>
      <dc:title>Matplotlib v3.4.2, https://matplotlib.org/</dc:title>
     </cc:Agent>
    </dc:creator>
   </cc:Work>
  </rdf:RDF>
 </metadata>
 <defs>
  <style type="text/css">*{stroke-linecap:butt;stroke-linejoin:round;}</style>
 </defs>
 <g id="figure_1">
  <g id="patch_1">
   <path d="M 0 248.518125 
L 386.845313 248.518125 
L 386.845313 0 
L 0 0 
z
" style="fill:#ffffff;"/>
  </g>
  <g id="axes_1">
   <g id="patch_2">
    <path d="M 44.845313 224.64 
L 379.645313 224.64 
L 379.645313 7.2 
L 44.845313 7.2 
z
" style="fill:#e5e5e5;"/>
   </g>
   <g id="matplotlib.axis_1">
    <g id="xtick_1">
     <g id="line2d_1">
      <path clip-path="url(#p3ae160718d)" d="M 60.063494 224.64 
L 60.063494 7.2 
" style="fill:none;stroke:#ffffff;stroke-linecap:square;stroke-width:0.8;"/>
     </g>
     <g id="line2d_2">
      <defs>
       <path d="M 0 0 
L 0 3.5 
" id="m3b91bd8e89" style="stroke:#555555;stroke-width:0.8;"/>
      </defs>
      <g>
       <use style="fill:#555555;stroke:#555555;stroke-width:0.8;" x="60.063494" xlink:href="#m3b91bd8e89" y="224.64"/>
      </g>
     </g>
     <g id="text_1">
      <!-- 0 -->
      <g style="fill:#555555;" transform="translate(56.882244 239.238437)scale(0.1 -0.1)">
       <defs>
        <path d="M 2034 4250 
Q 1547 4250 1301 3770 
Q 1056 3291 1056 2328 
Q 1056 1369 1301 889 
Q 1547 409 2034 409 
Q 2525 409 2770 889 
Q 3016 1369 3016 2328 
Q 3016 3291 2770 3770 
Q 2525 4250 2034 4250 
z
M 2034 4750 
Q 2819 4750 3233 4129 
Q 3647 3509 3647 2328 
Q 3647 1150 3233 529 
Q 2819 -91 2034 -91 
Q 1250 -91 836 529 
Q 422 1150 422 2328 
Q 422 3509 836 4129 
Q 1250 4750 2034 4750 
z
" id="DejaVuSans-30" transform="scale(0.015625)"/>
       </defs>
       <use xlink:href="#DejaVuSans-30"/>
      </g>
     </g>
    </g>
    <g id="xtick_2">
     <g id="line2d_3">
      <path clip-path="url(#p3ae160718d)" d="M 98.108949 224.64 
L 98.108949 7.2 
" style="fill:none;stroke:#ffffff;stroke-linecap:square;stroke-width:0.8;"/>
     </g>
     <g id="line2d_4">
      <g>
       <use style="fill:#555555;stroke:#555555;stroke-width:0.8;" x="98.108949" xlink:href="#m3b91bd8e89" y="224.64"/>
      </g>
     </g>
     <g id="text_2">
      <!-- 2 -->
      <g style="fill:#555555;" transform="translate(94.927699 239.238437)scale(0.1 -0.1)">
       <defs>
        <path d="M 1228 531 
L 3431 531 
L 3431 0 
L 469 0 
L 469 531 
Q 828 903 1448 1529 
Q 2069 2156 2228 2338 
Q 2531 2678 2651 2914 
Q 2772 3150 2772 3378 
Q 2772 3750 2511 3984 
Q 2250 4219 1831 4219 
Q 1534 4219 1204 4116 
Q 875 4013 500 3803 
L 500 4441 
Q 881 4594 1212 4672 
Q 1544 4750 1819 4750 
Q 2544 4750 2975 4387 
Q 3406 4025 3406 3419 
Q 3406 3131 3298 2873 
Q 3191 2616 2906 2266 
Q 2828 2175 2409 1742 
Q 1991 1309 1228 531 
z
" id="DejaVuSans-32" transform="scale(0.015625)"/>
       </defs>
       <use xlink:href="#DejaVuSans-32"/>
      </g>
     </g>
    </g>
    <g id="xtick_3">
     <g id="line2d_5">
      <path clip-path="url(#p3ae160718d)" d="M 136.154403 224.64 
L 136.154403 7.2 
" style="fill:none;stroke:#ffffff;stroke-linecap:square;stroke-width:0.8;"/>
     </g>
     <g id="line2d_6">
      <g>
       <use style="fill:#555555;stroke:#555555;stroke-width:0.8;" x="136.154403" xlink:href="#m3b91bd8e89" y="224.64"/>
      </g>
     </g>
     <g id="text_3">
      <!-- 4 -->
      <g style="fill:#555555;" transform="translate(132.973153 239.238437)scale(0.1 -0.1)">
       <defs>
        <path d="M 2419 4116 
L 825 1625 
L 2419 1625 
L 2419 4116 
z
M 2253 4666 
L 3047 4666 
L 3047 1625 
L 3713 1625 
L 3713 1100 
L 3047 1100 
L 3047 0 
L 2419 0 
L 2419 1100 
L 313 1100 
L 313 1709 
L 2253 4666 
z
" id="DejaVuSans-34" transform="scale(0.015625)"/>
       </defs>
       <use xlink:href="#DejaVuSans-34"/>
      </g>
     </g>
    </g>
    <g id="xtick_4">
     <g id="line2d_7">
      <path clip-path="url(#p3ae160718d)" d="M 174.199858 224.64 
L 174.199858 7.2 
" style="fill:none;stroke:#ffffff;stroke-linecap:square;stroke-width:0.8;"/>
     </g>
     <g id="line2d_8">
      <g>
       <use style="fill:#555555;stroke:#555555;stroke-width:0.8;" x="174.199858" xlink:href="#m3b91bd8e89" y="224.64"/>
      </g>
     </g>
     <g id="text_4">
      <!-- 6 -->
      <g style="fill:#555555;" transform="translate(171.018608 239.238437)scale(0.1 -0.1)">
       <defs>
        <path d="M 2113 2584 
Q 1688 2584 1439 2293 
Q 1191 2003 1191 1497 
Q 1191 994 1439 701 
Q 1688 409 2113 409 
Q 2538 409 2786 701 
Q 3034 994 3034 1497 
Q 3034 2003 2786 2293 
Q 2538 2584 2113 2584 
z
M 3366 4563 
L 3366 3988 
Q 3128 4100 2886 4159 
Q 2644 4219 2406 4219 
Q 1781 4219 1451 3797 
Q 1122 3375 1075 2522 
Q 1259 2794 1537 2939 
Q 1816 3084 2150 3084 
Q 2853 3084 3261 2657 
Q 3669 2231 3669 1497 
Q 3669 778 3244 343 
Q 2819 -91 2113 -91 
Q 1303 -91 875 529 
Q 447 1150 447 2328 
Q 447 3434 972 4092 
Q 1497 4750 2381 4750 
Q 2619 4750 2861 4703 
Q 3103 4656 3366 4563 
z
" id="DejaVuSans-36" transform="scale(0.015625)"/>
       </defs>
       <use xlink:href="#DejaVuSans-36"/>
      </g>
     </g>
    </g>
    <g id="xtick_5">
     <g id="line2d_9">
      <path clip-path="url(#p3ae160718d)" d="M 212.245313 224.64 
L 212.245313 7.2 
" style="fill:none;stroke:#ffffff;stroke-linecap:square;stroke-width:0.8;"/>
     </g>
     <g id="line2d_10">
      <g>
       <use style="fill:#555555;stroke:#555555;stroke-width:0.8;" x="212.245313" xlink:href="#m3b91bd8e89" y="224.64"/>
      </g>
     </g>
     <g id="text_5">
      <!-- 8 -->
      <g style="fill:#555555;" transform="translate(209.064063 239.238437)scale(0.1 -0.1)">
       <defs>
        <path d="M 2034 2216 
Q 1584 2216 1326 1975 
Q 1069 1734 1069 1313 
Q 1069 891 1326 650 
Q 1584 409 2034 409 
Q 2484 409 2743 651 
Q 3003 894 3003 1313 
Q 3003 1734 2745 1975 
Q 2488 2216 2034 2216 
z
M 1403 2484 
Q 997 2584 770 2862 
Q 544 3141 544 3541 
Q 544 4100 942 4425 
Q 1341 4750 2034 4750 
Q 2731 4750 3128 4425 
Q 3525 4100 3525 3541 
Q 3525 3141 3298 2862 
Q 3072 2584 2669 2484 
Q 3125 2378 3379 2068 
Q 3634 1759 3634 1313 
Q 3634 634 3220 271 
Q 2806 -91 2034 -91 
Q 1263 -91 848 271 
Q 434 634 434 1313 
Q 434 1759 690 2068 
Q 947 2378 1403 2484 
z
M 1172 3481 
Q 1172 3119 1398 2916 
Q 1625 2713 2034 2713 
Q 2441 2713 2670 2916 
Q 2900 3119 2900 3481 
Q 2900 3844 2670 4047 
Q 2441 4250 2034 4250 
Q 1625 4250 1398 4047 
Q 1172 3844 1172 3481 
z
" id="DejaVuSans-38" transform="scale(0.015625)"/>
       </defs>
       <use xlink:href="#DejaVuSans-38"/>
      </g>
     </g>
    </g>
    <g id="xtick_6">
     <g id="line2d_11">
      <path clip-path="url(#p3ae160718d)" d="M 250.290767 224.64 
L 250.290767 7.2 
" style="fill:none;stroke:#ffffff;stroke-linecap:square;stroke-width:0.8;"/>
     </g>
     <g id="line2d_12">
      <g>
       <use style="fill:#555555;stroke:#555555;stroke-width:0.8;" x="250.290767" xlink:href="#m3b91bd8e89" y="224.64"/>
      </g>
     </g>
     <g id="text_6">
      <!-- 10 -->
      <g style="fill:#555555;" transform="translate(243.928267 239.238437)scale(0.1 -0.1)">
       <defs>
        <path d="M 794 531 
L 1825 531 
L 1825 4091 
L 703 3866 
L 703 4441 
L 1819 4666 
L 2450 4666 
L 2450 531 
L 3481 531 
L 3481 0 
L 794 0 
L 794 531 
z
" id="DejaVuSans-31" transform="scale(0.015625)"/>
       </defs>
       <use xlink:href="#DejaVuSans-31"/>
       <use x="63.623047" xlink:href="#DejaVuSans-30"/>
      </g>
     </g>
    </g>
    <g id="xtick_7">
     <g id="line2d_13">
      <path clip-path="url(#p3ae160718d)" d="M 288.336222 224.64 
L 288.336222 7.2 
" style="fill:none;stroke:#ffffff;stroke-linecap:square;stroke-width:0.8;"/>
     </g>
     <g id="line2d_14">
      <g>
       <use style="fill:#555555;stroke:#555555;stroke-width:0.8;" x="288.336222" xlink:href="#m3b91bd8e89" y="224.64"/>
      </g>
     </g>
     <g id="text_7">
      <!-- 12 -->
      <g style="fill:#555555;" transform="translate(281.973722 239.238437)scale(0.1 -0.1)">
       <use xlink:href="#DejaVuSans-31"/>
       <use x="63.623047" xlink:href="#DejaVuSans-32"/>
      </g>
     </g>
    </g>
    <g id="xtick_8">
     <g id="line2d_15">
      <path clip-path="url(#p3ae160718d)" d="M 326.381676 224.64 
L 326.381676 7.2 
" style="fill:none;stroke:#ffffff;stroke-linecap:square;stroke-width:0.8;"/>
     </g>
     <g id="line2d_16">
      <g>
       <use style="fill:#555555;stroke:#555555;stroke-width:0.8;" x="326.381676" xlink:href="#m3b91bd8e89" y="224.64"/>
      </g>
     </g>
     <g id="text_8">
      <!-- 14 -->
      <g style="fill:#555555;" transform="translate(320.019176 239.238437)scale(0.1 -0.1)">
       <use xlink:href="#DejaVuSans-31"/>
       <use x="63.623047" xlink:href="#DejaVuSans-34"/>
      </g>
     </g>
    </g>
    <g id="xtick_9">
     <g id="line2d_17">
      <path clip-path="url(#p3ae160718d)" d="M 364.427131 224.64 
L 364.427131 7.2 
" style="fill:none;stroke:#ffffff;stroke-linecap:square;stroke-width:0.8;"/>
     </g>
     <g id="line2d_18">
      <g>
       <use style="fill:#555555;stroke:#555555;stroke-width:0.8;" x="364.427131" xlink:href="#m3b91bd8e89" y="224.64"/>
      </g>
     </g>
     <g id="text_9">
      <!-- 16 -->
      <g style="fill:#555555;" transform="translate(358.064631 239.238437)scale(0.1 -0.1)">
       <use xlink:href="#DejaVuSans-31"/>
       <use x="63.623047" xlink:href="#DejaVuSans-36"/>
      </g>
     </g>
    </g>
   </g>
   <g id="matplotlib.axis_2">
    <g id="ytick_1">
     <g id="line2d_19">
      <path clip-path="url(#p3ae160718d)" d="M 44.845313 207.784451 
L 379.645313 207.784451 
" style="fill:none;stroke:#ffffff;stroke-linecap:square;stroke-width:0.8;"/>
     </g>
     <g id="line2d_20">
      <defs>
       <path d="M 0 0 
L -3.5 0 
" id="mc75514c039" style="stroke:#555555;stroke-width:0.8;"/>
      </defs>
      <g>
       <use style="fill:#555555;stroke:#555555;stroke-width:0.8;" x="44.845313" xlink:href="#mc75514c039" y="207.784451"/>
      </g>
     </g>
     <g id="text_10">
      <!-- −0.12 -->
      <g style="fill:#555555;" transform="translate(7.2 211.58367)scale(0.1 -0.1)">
       <defs>
        <path d="M 678 2272 
L 4684 2272 
L 4684 1741 
L 678 1741 
L 678 2272 
z
" id="DejaVuSans-2212" transform="scale(0.015625)"/>
        <path d="M 684 794 
L 1344 794 
L 1344 0 
L 684 0 
L 684 794 
z
" id="DejaVuSans-2e" transform="scale(0.015625)"/>
       </defs>
       <use xlink:href="#DejaVuSans-2212"/>
       <use x="83.789062" xlink:href="#DejaVuSans-30"/>
       <use x="147.412109" xlink:href="#DejaVuSans-2e"/>
       <use x="179.199219" xlink:href="#DejaVuSans-31"/>
       <use x="242.822266" xlink:href="#DejaVuSans-32"/>
      </g>
     </g>
    </g>
    <g id="ytick_2">
     <g id="line2d_21">
      <path clip-path="url(#p3ae160718d)" d="M 44.845313 178.142719 
L 379.645313 178.142719 
" style="fill:none;stroke:#ffffff;stroke-linecap:square;stroke-width:0.8;"/>
     </g>
     <g id="line2d_22">
      <g>
       <use style="fill:#555555;stroke:#555555;stroke-width:0.8;" x="44.845313" xlink:href="#mc75514c039" y="178.142719"/>
      </g>
     </g>
     <g id="text_11">
      <!-- −0.10 -->
      <g style="fill:#555555;" transform="translate(7.2 181.941938)scale(0.1 -0.1)">
       <use xlink:href="#DejaVuSans-2212"/>
       <use x="83.789062" xlink:href="#DejaVuSans-30"/>
       <use x="147.412109" xlink:href="#DejaVuSans-2e"/>
       <use x="179.199219" xlink:href="#DejaVuSans-31"/>
       <use x="242.822266" xlink:href="#DejaVuSans-30"/>
      </g>
     </g>
    </g>
    <g id="ytick_3">
     <g id="line2d_23">
      <path clip-path="url(#p3ae160718d)" d="M 44.845313 148.500987 
L 379.645313 148.500987 
" style="fill:none;stroke:#ffffff;stroke-linecap:square;stroke-width:0.8;"/>
     </g>
     <g id="line2d_24">
      <g>
       <use style="fill:#555555;stroke:#555555;stroke-width:0.8;" x="44.845313" xlink:href="#mc75514c039" y="148.500987"/>
      </g>
     </g>
     <g id="text_12">
      <!-- −0.08 -->
      <g style="fill:#555555;" transform="translate(7.2 152.300205)scale(0.1 -0.1)">
       <use xlink:href="#DejaVuSans-2212"/>
       <use x="83.789062" xlink:href="#DejaVuSans-30"/>
       <use x="147.412109" xlink:href="#DejaVuSans-2e"/>
       <use x="179.199219" xlink:href="#DejaVuSans-30"/>
       <use x="242.822266" xlink:href="#DejaVuSans-38"/>
      </g>
     </g>
    </g>
    <g id="ytick_4">
     <g id="line2d_25">
      <path clip-path="url(#p3ae160718d)" d="M 44.845313 118.859254 
L 379.645313 118.859254 
" style="fill:none;stroke:#ffffff;stroke-linecap:square;stroke-width:0.8;"/>
     </g>
     <g id="line2d_26">
      <g>
       <use style="fill:#555555;stroke:#555555;stroke-width:0.8;" x="44.845313" xlink:href="#mc75514c039" y="118.859254"/>
      </g>
     </g>
     <g id="text_13">
      <!-- −0.06 -->
      <g style="fill:#555555;" transform="translate(7.2 122.658473)scale(0.1 -0.1)">
       <use xlink:href="#DejaVuSans-2212"/>
       <use x="83.789062" xlink:href="#DejaVuSans-30"/>
       <use x="147.412109" xlink:href="#DejaVuSans-2e"/>
       <use x="179.199219" xlink:href="#DejaVuSans-30"/>
       <use x="242.822266" xlink:href="#DejaVuSans-36"/>
      </g>
     </g>
    </g>
    <g id="ytick_5">
     <g id="line2d_27">
      <path clip-path="url(#p3ae160718d)" d="M 44.845313 89.217522 
L 379.645313 89.217522 
" style="fill:none;stroke:#ffffff;stroke-linecap:square;stroke-width:0.8;"/>
     </g>
     <g id="line2d_28">
      <g>
       <use style="fill:#555555;stroke:#555555;stroke-width:0.8;" x="44.845313" xlink:href="#mc75514c039" y="89.217522"/>
      </g>
     </g>
     <g id="text_14">
      <!-- −0.04 -->
      <g style="fill:#555555;" transform="translate(7.2 93.01674)scale(0.1 -0.1)">
       <use xlink:href="#DejaVuSans-2212"/>
       <use x="83.789062" xlink:href="#DejaVuSans-30"/>
       <use x="147.412109" xlink:href="#DejaVuSans-2e"/>
       <use x="179.199219" xlink:href="#DejaVuSans-30"/>
       <use x="242.822266" xlink:href="#DejaVuSans-34"/>
      </g>
     </g>
    </g>
    <g id="ytick_6">
     <g id="line2d_29">
      <path clip-path="url(#p3ae160718d)" d="M 44.845313 59.575789 
L 379.645313 59.575789 
" style="fill:none;stroke:#ffffff;stroke-linecap:square;stroke-width:0.8;"/>
     </g>
     <g id="line2d_30">
      <g>
       <use style="fill:#555555;stroke:#555555;stroke-width:0.8;" x="44.845313" xlink:href="#mc75514c039" y="59.575789"/>
      </g>
     </g>
     <g id="text_15">
      <!-- −0.02 -->
      <g style="fill:#555555;" transform="translate(7.2 63.375008)scale(0.1 -0.1)">
       <use xlink:href="#DejaVuSans-2212"/>
       <use x="83.789062" xlink:href="#DejaVuSans-30"/>
       <use x="147.412109" xlink:href="#DejaVuSans-2e"/>
       <use x="179.199219" xlink:href="#DejaVuSans-30"/>
       <use x="242.822266" xlink:href="#DejaVuSans-32"/>
      </g>
     </g>
    </g>
    <g id="ytick_7">
     <g id="line2d_31">
      <path clip-path="url(#p3ae160718d)" d="M 44.845313 29.934057 
L 379.645313 29.934057 
" style="fill:none;stroke:#ffffff;stroke-linecap:square;stroke-width:0.8;"/>
     </g>
     <g id="line2d_32">
      <g>
       <use style="fill:#555555;stroke:#555555;stroke-width:0.8;" x="44.845313" xlink:href="#mc75514c039" y="29.934057"/>
      </g>
     </g>
     <g id="text_16">
      <!-- 0.00 -->
      <g style="fill:#555555;" transform="translate(15.579688 33.733275)scale(0.1 -0.1)">
       <use xlink:href="#DejaVuSans-30"/>
       <use x="63.623047" xlink:href="#DejaVuSans-2e"/>
       <use x="95.410156" xlink:href="#DejaVuSans-30"/>
       <use x="159.033203" xlink:href="#DejaVuSans-30"/>
      </g>
     </g>
    </g>
   </g>
   <g id="line2d_33">
    <path clip-path="url(#p3ae160718d)" d="M 60.063494 29.934057 
L 65.482251 29.82428 
L 67.126143 29.560886 
L 68.465611 29.129849 
L 69.683309 28.509583 
L 70.901007 27.636324 
L 72.17959 26.43677 
L 73.640828 24.746091 
L 75.893569 21.734617 
L 77.963656 19.088664 
L 79.120469 17.949392 
L 80.033743 17.34702 
L 80.764362 17.108959 
L 81.434096 17.115979 
L 82.042945 17.333416 
L 82.712679 17.828983 
L 83.382413 18.616582 
L 84.113031 19.834342 
L 84.904535 21.603122 
L 85.756924 24.05848 
L 86.731082 27.59098 
L 87.766126 32.210985 
L 88.922939 38.428694 
L 90.201522 46.551905 
L 91.66276 57.318352 
L 93.428422 72.121803 
L 95.742048 93.622076 
L 101.465229 147.72818 
L 103.230891 161.940686 
L 104.692129 172.051932 
L 105.970712 179.469741 
L 107.127525 184.93223 
L 108.162569 188.771089 
L 109.075842 191.323676 
L 109.867346 192.90544 
L 110.53708 193.793812 
L 111.145929 194.251756 
L 111.693893 194.387146 
L 112.180972 194.294275 
L 112.728936 193.95855 
L 113.337786 193.310864 
L 114.068404 192.174167 
L 114.920793 190.391512 
L 115.894952 187.81796 
L 117.11265 183.9235 
L 118.634772 178.25318 
L 121.070168 168.174839 
L 124.175298 155.501657 
L 125.880076 149.460853 
L 127.280429 145.274826 
L 128.498127 142.304189 
L 129.594055 140.206155 
L 130.568213 138.81378 
L 131.420602 137.961264 
L 132.212106 137.470227 
L 132.942725 137.266052 
L 133.673344 137.290887 
L 134.403962 137.532338 
L 135.195466 138.021332 
L 136.10874 138.852282 
L 137.204668 140.177378 
L 138.544136 142.187713 
L 140.309798 145.282295 
L 145.42413 154.496124 
L 146.946253 156.657974 
L 148.224836 158.111767 
L 149.381649 159.108894 
L 150.477577 159.761884 
L 151.512621 160.117139 
L 152.486779 160.225996 
L 153.521822 160.115646 
L 154.617751 159.767525 
L 155.835449 159.139137 
L 157.296686 158.119252 
L 159.305888 156.41805 
L 163.141637 153.127656 
L 164.724645 152.085656 
L 166.064113 151.460667 
L 167.281811 151.135179 
L 168.438624 151.060337 
L 169.534552 151.208997 
L 170.691365 151.598779 
L 171.909063 152.259786 
L 173.187646 153.211774 
L 174.648884 154.584806 
L 176.414546 156.56782 
L 178.971712 159.823021 
L 182.990116 164.934644 
L 184.877548 166.964574 
L 186.460556 168.355174 
L 187.860908 169.305179 
L 189.200376 169.9477 
L 190.478959 170.311785 
L 191.696657 170.435062 
L 192.97524 170.340824 
L 194.314708 170.016664 
L 195.775946 169.434043 
L 197.541608 168.476284 
L 199.916119 166.907094 
L 204.969566 163.50099 
L 206.978768 162.460941 
L 208.744431 161.799335 
L 210.388323 161.421961 
L 211.97133 161.281614 
L 213.615223 161.358116 
L 215.380885 161.666162 
L 217.390087 162.247418 
L 220.069023 163.271354 
L 225.974858 165.594527 
L 228.288485 166.226061 
L 230.419456 166.583064 
L 232.550428 166.714232 
L 234.80317 166.627159 
L 237.482105 166.288689 
L 242.535552 165.358511 
L 245.945107 164.86068 
L 248.624043 164.692301 
L 251.181209 164.757577 
L 253.860145 165.056561 
L 257.02616 165.648103 
L 267.072169 167.710826 
L 269.933759 167.963841 
L 272.79535 167.994546 
L 275.961365 167.800994 
L 280.405963 167.280044 
L 286.920648 166.535008 
L 290.573742 166.35614 
L 294.226836 166.402518 
L 298.671434 166.69812 
L 309.630717 167.528408 
L 314.25797 167.581922 
L 320.22469 167.404922 
L 329.479196 167.135943 
L 335.385031 167.218559 
L 354.259352 167.688709 
L 364.427131 167.479269 
L 364.427131 167.479269 
" style="fill:none;stroke:#e24a33;stroke-linecap:square;"/>
   </g>
   <g id="line2d_34">
    <path clip-path="url(#p3ae160718d)" d="M 60.063494 29.934057 
L 66.21287 30.04202 
L 67.734992 30.305258 
L 68.891805 30.729219 
L 69.865964 31.316677 
L 70.779237 32.122472 
L 71.692511 33.234478 
L 72.605785 34.709866 
L 73.579943 36.743757 
L 74.554102 39.306565 
L 75.589145 42.656124 
L 76.745958 47.199968 
L 77.963656 52.903814 
L 79.364009 60.583547 
L 80.947016 70.547662 
L 82.956218 84.688672 
L 89.410018 131.308858 
L 90.993026 140.515569 
L 92.271609 146.744645 
L 93.428422 151.329138 
L 94.40258 154.365021 
L 95.254969 156.385452 
L 96.046473 157.727496 
L 96.716207 158.465495 
L 97.325056 158.826675 
L 97.87302 158.906446 
L 98.420984 158.761658 
L 99.029833 158.348427 
L 99.699567 157.603722 
L 100.491071 156.360792 
L 101.404344 154.488696 
L 102.500273 151.716153 
L 103.900625 147.535171 
L 106.153367 139.993451 
L 108.893188 131.005632 
L 110.354425 126.937866 
L 111.572123 124.174691 
L 112.607167 122.366121 
L 113.459555 121.290371 
L 114.190174 120.683906 
L 114.859908 120.392566 
L 115.468757 120.351107 
L 116.077606 120.52365 
L 116.74734 120.959688 
L 117.477959 121.725394 
L 118.269463 122.887104 
L 119.182736 124.637525 
L 120.21778 127.115356 
L 121.435478 130.630263 
L 122.896716 135.560532 
L 124.845032 142.997235 
L 131.237947 168.080642 
L 132.88184 173.293275 
L 134.282193 177.023491 
L 135.499891 179.682098 
L 136.595819 181.591826 
L 137.630862 182.974918 
L 138.605021 183.912811 
L 139.518294 184.486318 
L 140.370683 184.77145 
L 141.223072 184.834356 
L 142.136345 184.680091 
L 143.171389 184.265427 
L 144.389087 183.513958 
L 145.911209 182.294066 
L 151.147311 177.857535 
L 152.425894 177.16547 
L 153.582707 176.78213 
L 154.617751 176.659576 
L 155.652794 176.759274 
L 156.687837 177.087588 
L 157.783766 177.68377 
L 158.940579 178.580976 
L 160.219162 179.869721 
L 161.6804 181.677138 
L 163.446062 184.236975 
L 166.064113 188.479068 
L 169.899862 194.65472 
L 171.787294 197.269404 
L 173.370301 199.105754 
L 174.770654 200.413009 
L 176.110122 201.365034 
L 177.388705 201.997441 
L 178.606403 202.355018 
L 179.824101 202.488063 
L 181.102684 202.409263 
L 182.563922 202.08519 
L 184.268699 201.463697 
L 186.704095 200.310107 
L 190.478959 198.531278 
L 192.366391 197.903899 
L 194.010284 197.594209 
L 195.532406 197.536354 
L 196.993644 197.700022 
L 198.515767 198.097269 
L 200.098774 198.740054 
L 201.925321 199.733478 
L 204.117178 201.194113 
L 208.379121 204.382063 
L 211.240712 206.366141 
L 213.371683 207.582921 
L 215.259115 208.41326 
L 217.085662 208.973501 
L 218.91221 209.294643 
L 220.799642 209.3951 
L 222.869728 209.279518 
L 225.487779 208.898663 
L 232.854853 207.697579 
L 235.229364 207.612073 
L 237.54299 207.754442 
L 239.917501 208.129653 
L 242.596437 208.786791 
L 246.493071 210.003674 
L 251.546518 211.545891 
L 254.468994 212.194122 
L 257.147929 212.557855 
L 259.826865 212.696051 
L 262.87111 212.621616 
L 267.254823 212.262377 
L 272.978004 211.831623 
L 276.448444 211.805192 
L 279.857999 212.004935 
L 283.876402 212.476866 
L 295.14011 213.939301 
L 299.097628 214.131989 
L 303.481342 214.113582 
L 319.006992 213.829791 
L 325.034598 214.124266 
L 336.176535 214.701312 
L 342.32591 214.749559 
L 362.965893 214.699516 
L 364.427131 214.738929 
L 364.427131 214.738929 
" style="fill:none;stroke:#348abd;stroke-linecap:square;"/>
   </g>
   <g id="patch_3">
    <path d="M 44.845313 224.64 
L 44.845313 7.2 
" style="fill:none;stroke:#ffffff;stroke-linecap:square;stroke-linejoin:miter;"/>
   </g>
   <g id="patch_4">
    <path d="M 379.645313 224.64 
L 379.645313 7.2 
" style="fill:none;stroke:#ffffff;stroke-linecap:square;stroke-linejoin:miter;"/>
   </g>
   <g id="patch_5">
    <path d="M 44.845313 224.64 
L 379.645313 224.64 
" style="fill:none;stroke:#ffffff;stroke-linecap:square;stroke-linejoin:miter;"/>
   </g>
   <g id="patch_6">
    <path d="M 44.845313 7.2 
L 379.645313 7.2 
" style="fill:none;stroke:#ffffff;stroke-linecap:square;stroke-linejoin:miter;"/>
   </g>
  </g>
 </g>
 <defs>
  <clipPath id="p3ae160718d">
   <rect height="217.44" width="334.8" x="44.845313" y="7.2"/>
  </clipPath>
 </defs>
</svg>
